<svg width="42" height="63" viewBox="0 0 42 63" fill="none" xmlns="http://www.w3.org/2000/svg">
<g clip-path="url(#clip0_5_53)">
<path d="M21.3103 1.73422e-06C21.6073 0.1277 21.6073 0.1277 21.9173 0.308119C22.0333 0.374738 22.1493 0.441358 22.2688 0.509996C22.3933 0.583267 22.5178 0.656562 22.6422 0.72988C22.7714 0.80463 22.9006 0.879258 23.0298 0.953765C23.2941 1.1064 23.5579 1.25977 23.8214 1.41384C24.1797 1.62338 24.539 1.83115 24.8987 2.03838C25.3159 2.27875 25.7328 2.51963 26.1494 2.76105C26.6941 3.07637 27.2418 3.38629 27.7904 3.69501C28.278 3.97236 28.762 4.25572 29.2451 4.54063C29.6414 4.77311 30.0414 4.99645 30.4465 5.21359C31.0381 5.53122 31.6184 5.86597 32.1983 6.20396C33.078 6.71455 33.9612 7.21854 34.8491 7.71494C34.9512 7.77199 35.0532 7.82905 35.1584 7.88783C35.6267 8.15165 35.6267 8.15165 36.1034 8.4C36.1034 8.46761 36.1034 8.53522 36.1034 8.60488C36.1727 8.61188 36.2419 8.61888 36.3132 8.62609C36.732 8.73673 37.0437 8.95264 37.403 9.1875C37.9998 9.56839 38.5991 9.90187 39.24 10.2063C39.5927 10.3845 39.9126 10.596 40.2373 10.8193C40.4387 10.9546 40.643 11.0745 40.8556 11.1915C41.1724 11.3707 41.1724 11.3707 41.3793 11.5756C41.4051 11.8405 41.4051 11.8405 41.4049 12.1839C41.4054 12.3144 41.4058 12.4448 41.4063 12.5792C41.4058 12.7254 41.4052 12.8715 41.4046 13.0177C41.4048 13.1718 41.405 13.326 41.4054 13.4802C41.406 13.9055 41.4053 14.3307 41.4045 14.756C41.4038 15.214 41.4043 15.672 41.4047 16.13C41.4053 16.9241 41.4051 17.7183 41.4045 18.5124C41.4037 19.7668 41.4048 21.0213 41.4063 22.2757C41.4068 22.7046 41.4073 23.1334 41.4077 23.5622C41.4079 23.723 41.4079 23.723 41.408 23.887C41.4093 25.1077 41.4101 26.3284 41.4107 27.549C41.4108 27.6606 41.4108 27.7723 41.4109 27.8873C41.4118 29.6971 41.4114 31.507 41.4108 33.3168C41.4102 35.1732 41.4116 37.0297 41.4147 38.8861C41.4165 40.0321 41.4167 41.1781 41.4147 42.3242C41.4135 43.1091 41.4142 43.8939 41.4163 44.6788C41.4175 45.1322 41.4178 45.5855 41.4159 46.0389C41.4141 46.4535 41.4148 46.868 41.4173 47.2826C41.4178 47.433 41.4174 47.5834 41.416 47.7338C41.4143 47.9374 41.4161 48.1411 41.4181 48.3447C41.4181 48.458 41.4181 48.5714 41.4181 48.6882C41.4551 48.9893 41.4551 48.9893 41.7408 49.1432C41.8264 49.1861 41.9119 49.229 42 49.2732C42.115 49.6509 42.091 50.0392 42.0905 50.432C42.0987 50.5908 42.0987 50.5908 42.1071 50.7527C42.112 51.5052 42.112 51.5052 41.8313 51.8161C41.5856 51.9828 41.336 52.1131 41.069 52.2439C40.8631 52.3596 40.6576 52.4758 40.4523 52.5924C40.2314 52.7135 40.0102 52.8342 39.7888 52.9546C39.0402 53.3617 38.3093 53.7822 37.592 54.2412C37.3072 54.4186 37.0161 54.5682 36.7112 54.7088C36.2467 54.932 35.8287 55.182 35.4048 55.4723C35.0711 55.6907 34.7201 55.8718 34.3675 56.0582C33.958 56.2806 33.5568 56.5154 33.1552 56.7512C32.6805 57.0296 32.2059 57.3057 31.7198 57.5643C30.8587 58.0233 30.0173 58.5173 29.1724 59.0049C29.0695 59.0642 28.9667 59.1236 28.8607 59.1848C28.2373 59.5445 27.6141 59.9045 26.9911 60.2648C26.7799 60.3869 26.5686 60.5088 26.3573 60.6307C26.2483 60.6935 26.1393 60.7564 26.0269 60.8212C25.9286 60.8778 25.8302 60.9345 25.7289 60.9929C25.4594 61.1496 25.1917 61.309 24.9246 61.4698C24.4867 61.7314 24.0409 61.9748 23.5894 62.2125C23.2855 62.3733 23.2855 62.3733 23.0536 62.5387C22.3617 62.9992 21.8257 63.0955 21 63.0768C20.8949 63.0792 20.7898 63.0816 20.6816 63.084C19.8695 63.0779 19.3811 62.8388 18.7241 62.3854C18.6028 62.3136 18.4806 62.2433 18.3572 62.1749C18.1223 62.0427 17.8873 61.9103 17.6525 61.7779C17.5901 61.7428 17.5278 61.7078 17.4636 61.6716C17.1594 61.5002 16.8556 61.3281 16.5517 61.1561C16.1873 60.9498 15.8229 60.7437 15.4582 60.5379C15.3966 60.5031 15.335 60.4683 15.2716 60.4324C15.1032 60.3374 14.9348 60.2423 14.7664 60.1473C14.01 59.7181 13.2589 59.2798 12.5063 58.844C12.3506 58.7539 12.3506 58.7539 12.1917 58.662C11.9808 58.5398 11.7698 58.4177 11.5589 58.2954C11.1049 58.0328 10.6506 57.7713 10.1901 57.5199C9.51175 57.1494 8.84624 56.7568 8.17848 56.3681C7.57668 56.019 6.97128 55.6793 6.35689 55.3524C6.01407 55.1661 5.68086 54.9653 5.34658 54.7645C4.98225 54.5486 4.61292 54.3419 4.24353 54.1347C3.84821 53.9119 3.45611 53.6843 3.06547 53.4536C1.70944 52.6488 1.70944 52.6488 0.305095 51.9318C0.103451 51.8341 0.103451 51.8341 3.15506e-06 51.7317C-0.0318758 51.327 -0.0287961 50.921 -0.0323244 50.5152C-0.0353248 50.401 -0.0383252 50.2868 -0.0414166 50.1691C-0.0427167 50.0049 -0.0427167 50.0049 -0.0440432 49.8374C-0.0455517 49.7366 -0.0470603 49.6359 -0.0486145 49.5321C3.15506e-06 49.2732 3.15506e-06 49.2732 0.196722 49.0842C0.413796 48.9659 0.413796 48.9659 0.620693 48.9659C0.620457 48.8869 0.620222 48.808 0.619979 48.7267C0.606097 44.0518 0.595443 39.377 0.588997 34.7021C0.58822 34.1411 0.587417 33.5801 0.586597 33.0192C0.586434 32.9075 0.586271 32.7958 0.586103 32.6807C0.5834 30.871 0.578506 29.0613 0.572804 27.2515C0.567005 25.3954 0.563554 23.5392 0.562293 21.683C0.56144 20.5371 0.558745 19.3913 0.553711 18.2454C0.550437 17.4602 0.549435 16.6751 0.550243 15.8899C0.550642 15.4365 0.550019 14.9831 0.546702 14.5298C0.543689 14.1149 0.543526 13.7001 0.545653 13.2852C0.545916 13.1349 0.545121 12.9847 0.543179 12.8344C0.529507 11.7113 0.529506 11.7113 0.754262 11.3768C0.918629 11.2371 0.91863 11.2371 1.24138 11.0634C1.33153 11.0097 1.42167 10.9559 1.51455 10.9006C1.60363 10.855 1.69271 10.8094 1.78449 10.7625C2.16207 10.5649 2.53195 10.3617 2.89655 10.1415C3.23903 9.93554 3.58451 9.74013 3.9375 9.55244C4.50083 9.25123 5.05171 8.9313 5.60258 8.60851C6.26342 8.22146 6.92771 7.84052 7.59355 7.46197C8.04073 7.20678 8.48046 6.94277 8.91704 6.67022C9.15939 6.52185 9.40785 6.38744 9.65949 6.25518C10.0318 6.05665 10.3973 5.85165 10.7586 5.63415C11.2022 5.36758 11.654 5.12066 12.1103 4.87626C13.3285 4.2177 14.5213 3.51272 15.7197 2.81988C16.9954 2.08245 18.2711 1.3469 19.565 0.641146C19.6372 0.601762 19.7093 0.562378 19.7837 0.521801C19.8515 0.485091 19.9194 0.448381 19.9893 0.410558C20.1455 0.322512 20.2959 0.224583 20.4448 0.124849C20.7614 -0.0365493 20.956 -0.0287973 21.3103 1.73422e-06Z" fill="#EFF8FF"/>
<path d="M41.2759 11.678C41.2759 24.0844 41.2759 36.4908 41.2759 49.2732C40.3883 49.7802 39.5007 50.2873 38.5862 50.8098C38.0464 51.1391 38.0464 51.1391 37.5081 51.4708C37.1813 51.6649 36.8443 51.8274 36.5015 51.9914C35.5521 52.475 34.6436 53.0438 33.7371 53.6012C33.2567 53.8958 32.7703 54.1711 32.2726 54.4359C31.1368 55.0427 30.0239 55.687 28.9143 56.3394C27.9037 56.9325 26.8834 57.5083 25.8621 58.0829C25.0457 58.5431 24.2312 59.0064 23.4181 59.4723C23.3343 59.5201 23.2506 59.5679 23.1643 59.6172C22.7933 59.8295 22.4235 60.0428 22.0579 60.2642C21.9478 60.3303 21.8376 60.3965 21.7241 60.4646C21.6303 60.5222 21.5364 60.5798 21.4397 60.6391C21.2069 60.7463 21.2069 60.7463 20.8966 60.6439C20.8953 59.7717 20.8942 58.8995 20.8932 58.0272C20.8929 57.7988 20.8926 57.5704 20.8923 57.3419C20.8901 55.5193 20.8896 53.6966 20.8933 51.8739C20.8948 51.1141 20.896 50.3542 20.8973 49.5944C20.8976 49.3971 20.8979 49.1998 20.8983 49.0025C20.9032 46.2351 20.8929 43.4682 20.8664 40.701C20.8481 38.7658 20.8368 36.8306 20.83 34.8954C20.8251 33.5889 20.8137 32.2828 20.7945 30.9765C20.7818 30.0732 20.7767 29.17 20.7775 28.2665C20.7777 27.7408 20.7744 27.2157 20.7621 26.6902C20.6923 23.5859 20.6923 23.5859 21.2039 22.8632C21.6839 22.4252 22.2091 22.187 22.8282 21.999C23.1447 21.8977 23.4116 21.741 23.6917 21.5654C23.8568 21.4728 24.0221 21.3803 24.1875 21.2881C24.806 20.9406 25.4218 20.5899 26.0302 20.2253C27.225 19.5095 28.4317 18.813 29.6618 18.1581C29.9514 17.9992 30.2289 17.8246 30.5079 17.6483C30.9484 17.3809 31.4072 17.1448 31.8621 16.9024C32.3923 16.6194 32.9088 16.3213 33.4203 16.0061C34.1316 15.5693 34.859 15.1647 35.5901 14.7613C36.0244 14.5206 36.4557 14.2749 36.8874 14.0297C37.1229 13.8964 37.3589 13.7638 37.5954 13.632C38.3331 13.2196 39.055 12.7907 39.7663 12.3349C40.8056 11.678 40.8056 11.678 41.2759 11.678Z" fill="#AAD9FF"/>
<path d="M21.3103 1.73501e-06C21.6073 0.1277 21.6073 0.1277 21.9173 0.308119C22.0333 0.374738 22.1493 0.441358 22.2688 0.509996C22.3933 0.583266 22.5178 0.656562 22.6422 0.72988C22.7714 0.80463 22.9006 0.879257 23.0298 0.953765C23.2941 1.1064 23.5579 1.25977 23.8214 1.41384C24.1797 1.62338 24.539 1.83115 24.8987 2.03838C25.3159 2.27875 25.7328 2.51963 26.1494 2.76105C26.6941 3.07637 27.2418 3.38629 27.7904 3.69501C28.278 3.97236 28.762 4.25572 29.2451 4.54063C29.6414 4.77311 30.0414 4.99645 30.4465 5.21359C31.0381 5.53122 31.6184 5.86597 32.1983 6.20396C33.078 6.71455 33.9612 7.21854 34.8491 7.71494C34.9512 7.77199 35.0532 7.82905 35.1584 7.88783C35.6267 8.15165 35.6267 8.15165 36.1035 8.4C36.1035 8.46761 36.1035 8.53522 36.1035 8.60488C36.1727 8.61188 36.2419 8.61888 36.3132 8.62609C36.732 8.73673 37.0437 8.95264 37.403 9.1875C37.9998 9.56839 38.5991 9.90187 39.24 10.2063C39.5927 10.3845 39.9126 10.596 40.2373 10.8193C40.4387 10.9546 40.643 11.0745 40.8556 11.1915C41.1724 11.3707 41.1724 11.3707 41.3793 11.5756C41.4051 11.8405 41.4051 11.8405 41.4049 12.1839C41.4054 12.3144 41.4058 12.4448 41.4063 12.5792C41.4058 12.7254 41.4052 12.8715 41.4046 13.0177C41.4048 13.1718 41.405 13.326 41.4053 13.4802C41.406 13.9055 41.4053 14.3307 41.4045 14.756C41.4038 15.214 41.4043 15.672 41.4047 16.13C41.4053 16.9241 41.4051 17.7183 41.4045 18.5124C41.4037 19.7668 41.4048 21.0213 41.4063 22.2757C41.4068 22.7046 41.4073 23.1334 41.4077 23.5622C41.4079 23.723 41.4079 23.723 41.4081 23.887C41.4093 25.1077 41.4101 26.3283 41.4107 27.549C41.4108 27.6606 41.4108 27.7723 41.4109 27.8873C41.4117 29.6971 41.4114 31.507 41.4108 33.3168C41.4102 35.1732 41.4116 37.0297 41.4147 38.8861C41.4165 40.0321 41.4167 41.1781 41.4147 42.3242C41.4135 43.1091 41.4142 43.8939 41.4163 44.6788C41.4175 45.1322 41.4178 45.5855 41.4159 46.0389C41.4141 46.4535 41.4148 46.868 41.4173 47.2826C41.4178 47.433 41.4174 47.5834 41.416 47.7338C41.4143 47.9374 41.4161 48.1411 41.4181 48.3447C41.4181 48.458 41.4181 48.5714 41.4181 48.6882C41.4553 48.9902 41.4553 48.9902 41.7454 49.1455C41.8294 49.1876 41.9134 49.2298 42 49.2732C42 49.3408 42 49.4084 42 49.478C41.8877 49.5398 41.7754 49.6016 41.6598 49.6653C41.5102 49.748 41.3607 49.8307 41.2112 49.9134C41.1375 49.954 41.0637 49.9945 40.9877 50.0363C40.553 50.2772 40.1377 50.5342 39.7241 50.8098C39.5574 50.904 39.3893 50.9958 39.2198 51.0851C38.0765 51.6955 36.9492 52.3318 35.8318 52.9876C35.3232 53.2853 34.8096 53.5732 34.2931 53.8573C33.7775 54.141 33.2844 54.4404 32.7984 54.7721C32.4917 54.9676 32.1673 55.1189 31.8394 55.2763C30.9104 55.7388 30.0222 56.2847 29.1324 56.8167C28.5757 57.1488 28.0125 57.4687 27.4473 57.7864C27.1287 57.9662 26.8119 58.1488 26.4957 58.3326C26.0224 58.607 25.5455 58.8743 25.0668 59.1393C24.4729 59.4688 23.8824 59.8035 23.2953 60.1445C23.2217 60.1872 23.1481 60.2299 23.0722 60.2738C22.5515 60.578 22.0454 60.8997 21.548 61.2401C21.2753 61.3788 21.0955 61.3854 20.7931 61.361C20.851 61.0126 20.9389 60.8758 21.2263 60.6695C21.7839 60.2778 22.3822 59.9531 22.9787 59.6242C23.2986 59.4473 23.6171 59.2679 23.9353 59.0881C23.9964 59.0537 24.0575 59.0192 24.1204 58.9838C24.4359 58.8051 24.7474 58.6221 25.0539 58.4287C25.4496 58.1793 25.86 57.9606 26.2726 57.74C27.2238 57.2266 28.1565 56.6811 29.0891 56.1357C29.6787 55.7917 30.2719 55.4542 30.8664 55.1186C32.0975 54.4237 33.3245 53.7222 34.5477 53.0138C35.5046 52.4597 36.4614 51.9061 37.4297 51.3717C38.5735 50.7379 39.72 50.0963 40.8309 49.4074C41.069 49.2732 41.069 49.2732 41.2759 49.2732C41.2759 36.8668 41.2759 24.4604 41.2759 11.6781C40.0989 12.2593 40.0989 12.2593 38.9964 12.9197C38.4247 13.2785 37.8289 13.5962 37.2376 13.9218C36.8206 14.1524 36.4067 14.3884 35.9923 14.6236C35.6736 14.8045 35.3542 14.9842 35.0346 15.1638C34.8894 15.2455 34.8894 15.2455 34.7413 15.3289C34.55 15.4366 34.3586 15.5441 34.1672 15.6515C33.6968 15.9167 33.2422 16.193 32.7931 16.4927C32.6113 16.5954 32.4281 16.6958 32.2435 16.7936C32.1441 16.8468 32.0446 16.9 31.9421 16.9549C31.7725 17.045 31.6028 17.1349 31.4329 17.2246C30.9088 17.5059 30.4065 17.816 29.903 18.1317C29.3903 18.4526 28.8813 18.7476 28.3331 19.0056C27.2886 19.5319 26.2853 20.1505 25.283 20.7511C24.9285 20.96 24.5696 21.1612 24.2102 21.3616C23.8051 21.5889 23.4062 21.8248 23.0092 22.0656C22.9081 22.1263 22.8071 22.1871 22.703 22.2497C22.5015 22.3709 22.3007 22.4933 22.1007 22.6168C22.0073 22.6728 21.914 22.7287 21.8179 22.7863C21.6936 22.8621 21.6936 22.8621 21.5667 22.9395C21.2525 23.0734 21.0288 23.0801 20.6897 23.0488C20.432 22.9128 20.2047 22.7758 19.9655 22.6134C19.3011 22.1819 18.623 21.7935 17.9224 21.4226C17.0759 20.9724 16.2479 20.4996 15.4267 20.0057C14.8381 19.6522 14.2433 19.3128 13.6417 18.9814C13.1376 18.7031 12.6391 18.4162 12.1422 18.1253C11.3748 17.6761 10.6026 17.2363 9.82759 16.8C9.57105 16.655 9.31462 16.5098 9.05819 16.3646C8.94524 16.3007 8.83229 16.2368 8.71592 16.171C8.5493 16.0767 8.5493 16.0767 8.37931 15.9805C8.27316 15.9205 8.16702 15.8606 8.05765 15.7988C7.48085 15.4724 6.90535 15.1437 6.32974 14.8152C6.21339 14.749 6.09704 14.6827 5.97717 14.6144C5.36798 14.2667 4.76169 13.915 4.15958 13.5554C3.34202 13.0693 2.51518 12.599 1.65517 12.1902C1.65517 12.1226 1.65517 12.055 1.65517 11.9854C1.34793 11.884 1.04069 11.7825 0.724138 11.6781C0.724138 24.0168 0.724138 36.3556 0.724138 49.0683C0.587586 49.1021 0.451035 49.1359 0.310345 49.1707C0.276207 49.2721 0.242069 49.3736 0.206897 49.478C0.138621 49.478 0.0703448 49.478 0 49.478C0.0775862 49.2796 0.0775862 49.2796 0.206897 49.0683C0.421875 49.0039 0.421875 49.0039 0.62069 48.9659C0.620454 48.8869 0.620219 48.808 0.619976 48.7267C0.606094 44.0518 0.595439 39.377 0.588993 34.7021C0.588217 34.1411 0.587414 33.5801 0.586594 33.0192C0.586431 32.9075 0.586268 32.7958 0.5861 32.6807C0.583397 30.871 0.578503 29.0613 0.572801 27.2515C0.567002 25.3954 0.563551 23.5392 0.56229 21.683C0.561437 20.5371 0.558742 19.3913 0.553708 18.2454C0.550433 17.4602 0.549432 16.6751 0.55024 15.8899C0.550638 15.4365 0.550016 14.9831 0.546699 14.5298C0.543686 14.1149 0.543523 13.7001 0.54565 13.2852C0.545913 13.1349 0.545118 12.9847 0.543176 12.8344C0.529504 11.7113 0.529503 11.7113 0.754259 11.3768C0.918626 11.2371 0.918627 11.2371 1.24138 11.0634C1.33152 11.0097 1.42167 10.9559 1.51455 10.9006C1.60363 10.855 1.6927 10.8094 1.78448 10.7625C2.16207 10.5649 2.53194 10.3617 2.89655 10.1415C3.23903 9.93554 3.58451 9.74013 3.9375 9.55244C4.50083 9.25123 5.0517 8.9313 5.60257 8.60851C6.26342 8.22146 6.9277 7.84052 7.59355 7.46197C8.04072 7.20678 8.48046 6.94277 8.91703 6.67022C9.15939 6.52185 9.40785 6.38744 9.65948 6.25518C10.0318 6.05665 10.3973 5.85165 10.7586 5.63415C11.2022 5.36758 11.654 5.12066 12.1103 4.87626C13.3285 4.2177 14.5213 3.51272 15.7197 2.81988C16.9954 2.08245 18.2711 1.3469 19.565 0.641146C19.6372 0.601762 19.7093 0.562378 19.7837 0.5218C19.8515 0.485091 19.9194 0.448381 19.9893 0.410558C20.1455 0.322512 20.2959 0.224583 20.4448 0.124849C20.7613 -0.0365493 20.956 -0.0287973 21.3103 1.73501e-06Z" fill="#CFEAFF"/>
<path d="M3.62069 16.8C4.66171 17.3154 5.70769 17.8606 6.67888 18.4966C7.18004 18.8238 7.70455 19.0946 8.23707 19.3674C8.80924 19.6605 9.35705 19.9563 9.88456 20.3237C10.3183 20.6046 10.7757 20.8442 11.2297 21.0913C11.8801 21.4453 12.526 21.8066 13.1703 22.1716C13.2622 22.2237 13.3542 22.2757 13.449 22.3294C13.6182 22.4253 13.7872 22.5215 13.9561 22.6182C14.1343 22.7197 14.3138 22.8191 14.4937 22.9179C14.5907 22.9827 14.5907 22.9827 14.6897 23.0488C14.6897 23.1164 14.6897 23.184 14.6897 23.2537C14.1856 23.6167 13.6391 23.9156 13.0345 24.0732C13.0686 24.1746 13.1028 24.276 13.1379 24.3805C13.7489 24.3072 14.2162 23.9903 14.6961 23.6314C15 23.4585 15 23.4585 15.3297 23.4713C15.6207 23.561 15.6207 23.561 15.931 23.7659C15.9638 24.0345 15.976 24.2794 15.9753 24.5486C15.9763 24.6303 15.9773 24.7121 15.9783 24.7963C15.9813 25.0717 15.982 25.347 15.9827 25.6225C15.9843 25.8193 15.986 26.0161 15.9879 26.213C15.9924 26.7489 15.9948 27.2848 15.9966 27.8207C15.9977 28.1554 15.9992 28.49 16.0008 28.8247C16.0056 29.8712 16.009 30.9178 16.0107 31.9643C16.0126 33.1734 16.019 34.3823 16.0292 35.5913C16.0367 36.5251 16.0404 37.4589 16.041 38.3927C16.0414 38.9508 16.0436 39.5088 16.0499 40.0668C16.0557 40.5919 16.0566 41.1167 16.0537 41.6418C16.0535 41.8345 16.0551 42.0272 16.0585 42.2198C16.0832 43.6778 16.0832 43.6778 15.706 44.0896C15.4395 44.2505 15.1904 44.3569 14.8966 44.4585C14.7672 44.5317 14.6392 44.6075 14.5143 44.6878C13.5836 45.2459 12.6401 45.7782 11.6897 46.3024C10.7528 46.8198 9.82099 47.3438 8.8988 47.8864C8.46364 48.1419 8.02432 48.3884 7.5815 48.6306C7.18532 48.8488 6.79308 49.0737 6.40086 49.2988C6.31659 49.347 6.23232 49.3953 6.1455 49.445C5.73291 49.6818 5.32193 49.9209 4.9142 50.1659C4.84294 50.2087 4.77168 50.2515 4.69826 50.2957C4.56447 50.3764 4.43094 50.4575 4.2977 50.5392C3.85002 50.8098 3.85002 50.8098 3.62069 50.8098C3.62069 39.5865 3.62069 28.3633 3.62069 16.8Z" fill="white"/>
<path d="M11.5862 21.4098C12.0243 21.5833 12.4329 21.778 12.847 21.9988C12.9149 22.0349 12.9827 22.071 13.0527 22.1083C14.3647 22.811 14.3647 22.811 14.6897 23.0488C14.6897 23.1164 14.6897 23.184 14.6897 23.2537C14.1856 23.6167 13.6391 23.9156 13.0345 24.0732C13.0686 24.1746 13.1028 24.276 13.1379 24.3805C13.7489 24.3072 14.2162 23.9903 14.6961 23.6314C15 23.4585 15 23.4585 15.3297 23.4713C15.6207 23.561 15.6207 23.561 15.931 23.7659C15.9638 24.0345 15.976 24.2794 15.9753 24.5486C15.9763 24.6303 15.9773 24.7121 15.9783 24.7963C15.9813 25.0717 15.982 25.347 15.9827 25.6225C15.9843 25.8193 15.986 26.0161 15.9879 26.213C15.9924 26.7489 15.9948 27.2848 15.9966 27.8207C15.9977 28.1554 15.9992 28.49 16.0008 28.8247C16.0056 29.8712 16.009 30.9178 16.0107 31.9643C16.0126 33.1734 16.019 34.3823 16.0292 35.5913C16.0367 36.5251 16.0404 37.4589 16.041 38.3927C16.0414 38.9508 16.0436 39.5088 16.0499 40.0668C16.0557 40.5919 16.0566 41.1167 16.0537 41.6418C16.0535 41.8345 16.0551 42.0272 16.0585 42.2198C16.0832 43.6778 16.0832 43.6778 15.706 44.0896C15.4395 44.2505 15.1904 44.3569 14.8965 44.4585C14.7672 44.5317 14.6392 44.6075 14.5143 44.6878C13.8241 45.1017 13.1294 45.5064 12.4267 45.8991C12.3547 45.9395 12.2827 45.9799 12.2085 46.0215C11.7024 46.3024 11.7024 46.3024 11.5862 46.3024C11.5862 38.0879 11.5862 29.8733 11.5862 21.4098Z" fill="#AAD9FF"/>
<path d="M42 49.478C42.0272 49.8236 42.0436 50.1689 42.0582 50.5152C42.066 50.6127 42.0738 50.7101 42.0818 50.8106C42.1041 51.5156 42.1041 51.5156 41.8336 51.8111C41.5869 51.978 41.3359 52.1109 41.069 52.2439C40.8632 52.3597 40.6577 52.4759 40.4523 52.5924C40.2314 52.7135 40.0102 52.8342 39.7888 52.9546C39.0402 53.3617 38.3093 53.7822 37.592 54.2412C37.3072 54.4186 37.0161 54.5682 36.7112 54.7088C36.2467 54.932 35.8287 55.182 35.4048 55.4723C35.0711 55.6907 34.7201 55.8718 34.3675 56.0582C33.958 56.2806 33.5568 56.5154 33.1552 56.7512C32.6805 57.0296 32.2059 57.3057 31.7198 57.5643C30.8587 58.0233 30.0173 58.5173 29.1724 59.0049C29.0695 59.0642 28.9667 59.1236 28.8607 59.1847C28.2373 59.5445 27.6141 59.9045 26.9911 60.2648C26.7799 60.3869 26.5686 60.5088 26.3573 60.6307C26.1938 60.725 26.1938 60.725 26.0269 60.8212C25.8794 60.9062 25.8794 60.9062 25.7289 60.9929C25.4594 61.1496 25.1917 61.309 24.9246 61.4698C24.4762 61.7377 24.0193 61.9864 23.5567 62.2293C23.2746 62.3806 23.2746 62.3806 23.0176 62.5606C22.3386 63.019 21.8134 63.0747 21 63C20.9138 62.4861 20.8357 61.9673 21 61.4634C21.3677 61.0863 21.7752 60.8703 22.2471 60.6406C22.549 60.4918 22.8366 60.3202 23.1272 60.1509C23.3107 60.0485 23.4943 59.9461 23.678 59.8439C24.1293 59.592 24.5784 59.3365 25.028 59.0817C25.21 58.9787 25.392 58.8757 25.5739 58.7728C25.6591 58.7246 25.7443 58.6764 25.832 58.6267C25.9769 58.5448 26.1217 58.4629 26.2667 58.3813C26.712 58.1302 27.1537 57.8736 27.5948 57.6155C28.3216 57.1912 29.051 56.7716 29.7816 56.3538C30.4128 55.9925 31.0416 55.6275 31.6687 55.2592C32.0154 55.0563 32.364 54.8579 32.7167 54.6652C33.2888 54.3522 33.8521 54.0245 34.4159 53.6973C35.2544 53.2119 36.094 52.729 36.9384 52.2539C38.9244 51.1365 38.9244 51.1365 40.8948 49.9926C41.0078 49.9264 41.1207 49.8601 41.2371 49.7918C41.3895 49.7016 41.3895 49.7016 41.545 49.6097C41.7931 49.478 41.7931 49.478 42 49.478Z" fill="#CFEAFF"/>
<path d="M-2.70189e-06 49.478C1.08315 49.9965 2.12119 50.5842 3.14224 51.2131C3.90861 51.6841 4.69462 52.1174 5.48276 52.5512C5.78036 52.7152 6.07773 52.8796 6.375 53.0442C6.47597 53.0997 6.47597 53.0997 6.57899 53.1562C6.9854 53.3813 7.37202 53.6253 7.75862 53.8829C7.96463 53.9871 8.17157 54.0895 8.37931 54.1902C8.62244 54.324 8.86283 54.4618 9.10345 54.6C9.10345 54.6676 9.10345 54.7352 9.10345 54.8049C9.21445 54.821 9.21445 54.821 9.32769 54.8374C9.65337 54.9151 9.88302 55.0365 10.1707 55.2058C10.2754 55.267 10.3802 55.3281 10.4881 55.3911C10.5966 55.4554 10.705 55.5197 10.8168 55.586C10.9225 55.6479 11.0282 55.7098 11.1371 55.7736C11.3511 55.8991 11.5651 56.0248 11.7789 56.1507C12.4892 56.5681 13.1998 56.9838 13.9267 57.3723C14.467 57.6619 14.9925 57.9716 15.5172 58.2878C16.2924 58.7539 17.0667 59.2159 17.8666 59.6395C18.1581 59.7979 18.4466 59.9601 18.7346 60.1245C18.8305 60.1792 18.9264 60.2339 19.0251 60.2902C19.2173 60.4001 19.4093 60.5103 19.6011 60.6208C19.6909 60.6721 19.7808 60.7235 19.8734 60.7764C19.9534 60.8223 20.0333 60.8683 20.1157 60.9157C20.4355 61.0831 20.7709 61.2199 21.1034 61.361C21.0693 61.9019 21.0352 62.4427 21 63C19.9998 63.0691 19.5356 62.9359 18.7241 62.3854C18.4923 62.2509 18.26 62.1187 18.0259 61.9884C17.9014 61.9183 17.7769 61.8482 17.6525 61.7779C17.5901 61.7428 17.5278 61.7077 17.4636 61.6716C17.1594 61.5002 16.8555 61.3281 16.5517 61.1561C16.1873 60.9498 15.8229 60.7437 15.4582 60.5379C15.3966 60.5031 15.335 60.4683 15.2715 60.4324C15.1032 60.3373 14.9348 60.2423 14.7664 60.1473C14.01 59.7181 13.2589 59.2798 12.5063 58.844C12.4025 58.7839 12.2987 58.7238 12.1917 58.6619C11.9808 58.5398 11.7698 58.4177 11.5589 58.2954C11.1049 58.0328 10.6506 57.7713 10.1901 57.5199C9.51174 57.1494 8.84623 56.7568 8.17847 56.3681C7.57668 56.019 6.97128 55.6793 6.35689 55.3524C6.01407 55.166 5.68085 54.9653 5.34658 54.7645C4.98225 54.5486 4.61291 54.3419 4.24352 54.1347C3.84821 53.9119 3.4561 53.6843 3.06546 53.4536C1.70943 52.6488 1.70943 52.6488 0.305089 51.9318C0.103446 51.8341 0.103446 51.8341 -2.70189e-06 51.7317C-0.00900306 51.5642 -0.0110728 51.3964 -0.0101051 51.2287C-0.00977169 51.1274 -0.00943832 51.026 -0.00909483 50.9216C-0.00822805 50.815 -0.00736127 50.7083 -0.00646822 50.5985C-0.00600149 50.4914 -0.00553476 50.3844 -0.00505389 50.2741C-0.0038302 50.0088 -0.00212514 49.7434 -2.70189e-06 49.478Z" fill="#CFEAFF"/>
<path d="M15.931 23.8683C17.5603 24.675 17.5603 24.675 18.1034 24.9951C18.1131 27.2871 18.1204 29.5791 18.1249 31.8711C18.127 32.9353 18.1299 33.9994 18.1347 35.0636C18.1388 35.9909 18.1415 36.9182 18.1424 37.8455C18.1429 38.3367 18.1442 38.8279 18.1472 39.3191C18.15 39.7811 18.1509 40.2431 18.1502 40.7051C18.1504 40.875 18.1512 41.0448 18.1528 41.2147C18.1548 41.4461 18.1543 41.6774 18.1532 41.9088C18.1536 42.0384 18.154 42.1681 18.1544 42.3017C18.1034 42.6146 18.1034 42.6146 17.9102 42.8028C17.8374 42.8421 17.7646 42.8814 17.6897 42.922C17.6014 42.9727 17.5131 43.0234 17.4221 43.0756C17.3269 43.1263 17.2317 43.177 17.1336 43.2293C16.9916 43.3053 16.9916 43.3053 16.8467 43.3829C16.5437 43.5408 16.2373 43.6923 15.931 43.8439C15.931 37.252 15.931 30.66 15.931 23.8683Z" fill="white"/>
<path d="M0.62069 11.5756C0.654828 11.5756 0.688966 11.5756 0.724138 11.5756C0.724138 23.9482 0.724138 36.3208 0.724138 49.0683C0.587586 49.1021 0.451034 49.1359 0.310345 49.1707C0.276207 49.2721 0.242069 49.3736 0.206897 49.478C0.138621 49.478 0.0703448 49.478 0 49.478C0.0775862 49.2796 0.0775862 49.2796 0.206897 49.0683C0.343448 49.0345 0.48 49.0007 0.62069 48.9659C0.62069 36.6271 0.62069 24.2883 0.62069 11.5756Z" fill="#FDFDFD"/>
<path d="M14.6897 23.0488C14.8945 23.1502 15.0993 23.2516 15.3103 23.3561C14.9971 23.6018 14.6737 23.7914 14.3211 23.9771C14.0192 24.1366 13.7333 24.2948 13.4483 24.4829C13.222 24.4445 13.222 24.4445 13.0345 24.3805C13.0345 24.2791 13.0345 24.1777 13.0345 24.0732C13.1198 24.033 13.2052 23.9929 13.2931 23.9515C13.6454 23.7708 13.9722 23.5704 14.3033 23.3549C14.4828 23.2537 14.4828 23.2537 14.6897 23.2537C14.6897 23.1861 14.6897 23.1184 14.6897 23.0488Z" fill="#CFEAFF"/>
<path d="M14.3793 26.122C14.4134 26.2234 14.4476 26.3248 14.4828 26.4293C14.3049 26.5502 14.1257 26.6694 13.9461 26.7878C13.8465 26.8544 13.7469 26.9209 13.6443 26.9895C13.3348 27.1516 13.1708 27.1811 12.8276 27.1463C12.8446 26.9623 12.8446 26.9623 12.931 26.7366C13.1791 26.5621 13.1791 26.5621 13.4871 26.4037C13.5881 26.3503 13.6892 26.297 13.7934 26.242C14.069 26.122 14.069 26.122 14.3793 26.122Z" fill="#CFEAFF"/>
<path d="M13.9655 44.4585C14.1021 44.5261 14.2386 44.5938 14.3793 44.6634C14.0813 44.9093 13.8037 45.1216 13.4483 45.278C13.3384 45.0924 13.3384 45.0924 13.2414 44.8683C13.2755 44.7669 13.3097 44.6655 13.3448 44.561C13.4984 44.6624 13.4984 44.6624 13.6552 44.7659C13.7576 44.732 13.86 44.6982 13.9655 44.6634C13.9655 44.5958 13.9655 44.5282 13.9655 44.4585Z" fill="#AAD9FF"/>
<path d="M15.2069 22.9463C15.3776 22.9801 15.5483 23.014 15.7241 23.0488C15.7583 23.2516 15.7924 23.4544 15.8276 23.6634C15.7486 23.6317 15.6697 23.6 15.5884 23.5674C15.3944 23.4914 15.1979 23.4214 15 23.3561C15.0683 23.2209 15.1366 23.0857 15.2069 22.9463Z" fill="#EFF8FF"/>
<path d="M13.8621 24.9951C13.8621 25.1641 13.8621 25.3332 13.8621 25.5073C13.6572 25.6087 13.4524 25.7101 13.2414 25.8146C13.2091 25.5777 13.2091 25.5777 13.2414 25.3024C13.6587 24.9951 13.6587 24.9951 13.8621 24.9951Z" fill="#CFEAFF"/>
<path d="M13.8621 22.639C14.2717 22.8419 14.2717 22.8419 14.6897 23.0488C14.6897 23.1164 14.6897 23.184 14.6897 23.2537C14.5872 23.2875 14.4848 23.3213 14.3793 23.3561C14.2025 23.1898 14.0302 23.0187 13.8621 22.8439C13.8621 22.7763 13.8621 22.7087 13.8621 22.639Z" fill="#AAD9FF"/>
<path d="M13.6552 3.99512C13.7234 4.02893 13.7917 4.06273 13.8621 4.09756C13.6222 4.372 13.4154 4.4727 13.0668 4.57775C12.9414 4.61637 12.9414 4.61637 12.8134 4.65578C12.718 4.68371 12.718 4.68371 12.6207 4.7122C12.7579 4.44055 12.9171 4.37913 13.1832 4.23202C13.2663 4.18514 13.3493 4.13826 13.4349 4.08996C13.5076 4.05867 13.5803 4.02737 13.6552 3.99512Z" fill="#F5F5F5"/>
</g>
<defs>
<clipPath id="clip0_5_53">
<rect width="42" height="63" fill="white"/>
</clipPath>
</defs>
</svg>
