<svg width="39" height="33" viewBox="0 0 39 33" fill="none" xmlns="http://www.w3.org/2000/svg">
<path d="M23.2905 1.41236C23.2123 1.45543 23.1342 1.4985 23.0536 1.54288C22.5208 1.83919 22.0021 2.1557 21.484 2.47689C21.0419 2.74708 20.5928 3.00454 20.1425 3.26071C19.9901 3.34741 19.838 3.43446 19.6859 3.52155C19.1954 3.80164 18.7026 4.07598 18.2037 4.34107C17.7349 4.59191 17.2861 4.86379 16.8405 5.15336C16.3438 5.47164 15.8466 5.77508 15.3254 6.052C15.0173 6.21826 14.7135 6.39074 14.411 6.56699C14.3567 6.59761 14.3024 6.62823 14.2465 6.65977C13.8186 6.91176 13.4766 7.19568 13.2886 7.67155C13.2722 7.76334 13.2722 7.76334 13.2554 7.85699C13.2376 7.95527 13.2376 7.95527 13.2194 8.05553C13.1903 8.29201 13.184 8.52212 13.1962 8.75999C13.1217 8.78127 13.0472 8.80256 12.9705 8.82449C12.6035 8.96041 12.2923 9.12005 12.0406 9.42649C11.9248 9.8896 12.0361 10.275 12.2717 10.6735C12.4599 10.9498 12.6526 11.1596 12.9382 11.34C13.0234 11.34 13.1085 11.34 13.1962 11.34C13.1962 12.0779 13.1962 12.8158 13.1962 13.576C13.0543 13.6328 12.9124 13.6895 12.7662 13.748C12.651 13.8117 12.5372 13.878 12.4249 13.9469C11.7349 14.3581 11.1811 14.6591 10.3693 14.7353C9.82845 14.8251 9.36571 15.1107 8.89623 15.382C8.83767 15.4153 8.77911 15.4487 8.71877 15.4831C8.02631 15.8816 7.38245 16.2599 6.91823 16.93C5.86898 16.7376 5.13358 16.4508 4.45446 15.599C4.14592 15.2679 3.85895 15.1404 3.41373 15.081C2.9493 15.1004 2.58307 15.3268 2.18823 15.554C2.11107 15.5963 2.03391 15.6387 1.95442 15.6823C1.50722 15.9362 1.12452 16.161 0.919731 16.6559C0.800838 17.6962 1.12442 18.5139 1.75823 19.338C2.1162 19.717 2.50093 20.0965 3.04722 20.119C3.58779 20.1443 3.85954 20.3156 4.26533 20.6713C4.42423 20.8 4.42423 20.8 4.59623 20.8C4.59623 20.8568 4.59623 20.9135 4.59623 20.972C4.71192 21.0784 4.71192 21.0784 4.87237 21.1957C4.95851 21.2589 4.95851 21.2589 5.04639 21.3234C5.10714 21.3671 5.16789 21.4107 5.23048 21.4557C5.32061 21.5223 5.32061 21.5223 5.41256 21.5901C5.8636 21.918 5.8636 21.918 6.05823 21.918C6.05823 21.9748 6.05823 22.0315 6.05823 22.09C6.09871 22.1292 6.1392 22.1683 6.18091 22.2087C6.33701 22.3694 6.3682 22.4689 6.41735 22.6853C6.43326 22.7516 6.44916 22.8179 6.46556 22.8862C6.49008 22.9923 6.49008 22.9923 6.51511 23.1005C6.77975 24.1712 7.17349 25.1565 7.69223 26.132C7.62716 26.1575 7.56208 26.183 7.49504 26.2093C7.20172 26.3286 6.98503 26.437 6.74623 26.648C6.68186 27.0535 6.69222 27.2323 6.88061 27.594C7.09023 27.766 7.09023 27.766 7.36973 27.8197C7.72868 27.7599 7.93228 27.6444 8.2257 27.4385C8.38869 27.3207 8.38869 27.3207 8.63823 27.25C8.6542 27.3174 8.67016 27.3848 8.68661 27.4542C8.9447 28.1051 9.38686 28.6355 9.89531 29.1097C10.0245 29.2256 10.0245 29.2256 10.1002 29.4C10.157 29.4 10.2138 29.4 10.2722 29.4C10.2722 29.4568 10.2722 29.5135 10.2722 29.572C10.484 29.7911 10.7265 29.9788 10.9602 30.174C11.0328 30.2368 11.1055 30.2997 11.1803 30.3645C12.3989 31.3992 13.909 32.2169 15.5495 32.1732C16.5467 32.0801 17.3539 31.7131 18.0122 30.948C18.3891 30.4555 18.6044 29.99 18.7862 29.4C19.1092 29.5295 19.432 29.6595 19.7547 29.79C19.8643 29.8342 19.974 29.8784 20.0837 29.9224C20.2421 29.9858 20.4002 30.0498 20.5583 30.1139C20.6533 30.1521 20.7484 30.1904 20.8463 30.2299C21.2854 30.4245 21.5924 30.6408 21.9199 30.991C22.3347 31.4141 22.7324 31.71 23.3442 31.722C24.101 31.5036 25.0751 30.9489 25.5802 30.346C25.8027 29.8019 25.6656 29.054 25.4865 28.5168C25.2051 27.9095 24.8245 27.4009 24.2902 26.992C24.0947 26.9285 24.0947 26.9285 23.9462 26.906C23.9462 26.8492 23.9462 26.7925 23.9462 26.734C24.0078 26.7109 24.0694 26.6878 24.1328 26.664C24.379 26.5608 24.6002 26.4408 24.8304 26.306C24.9165 26.2557 25.0025 26.2055 25.0912 26.1537C25.1816 26.1004 25.2721 26.0471 25.3652 25.9922C25.458 25.9379 25.5509 25.8835 25.6465 25.8275C26.2106 25.496 26.7694 25.1577 27.3248 24.8118C27.6237 24.6303 27.9301 24.4655 28.2382 24.3001C28.581 24.1118 28.9191 23.9161 29.2567 23.7186C29.3482 23.6655 29.3482 23.6655 29.4416 23.6113C29.7307 23.4415 30.0093 23.2667 30.2797 23.0682C30.5342 22.8828 30.7925 22.7444 31.0789 22.6114C31.6776 22.323 32.2515 21.9941 32.8257 21.66C32.9122 21.61 32.9987 21.56 33.0877 21.5085C34.4866 20.6894 35.2861 20.0164 35.8142 18.478C35.8248 18.4136 35.8353 18.3492 35.8461 18.2828C35.9304 18.0509 36.0909 17.996 36.3034 17.8814C37.1039 17.4224 37.5423 16.9113 37.9051 16.0646C38.3883 14.0002 37.7925 11.6606 36.7188 9.87041C35.5307 7.96173 34.0024 6.17613 31.7309 5.64047C30.9615 5.48164 30.3136 5.60794 29.6491 6.02949C29.3118 6.20769 29.2081 6.19682 28.8482 6.09399C28.3427 5.9531 27.9111 5.90012 27.3862 5.92199C27.427 5.83508 27.4678 5.74816 27.5099 5.65861C27.7904 4.98805 27.7499 4.37723 27.5582 3.68599C27.2847 3.02151 26.9551 2.30727 26.4402 1.79399C26.3835 1.79399 26.3267 1.79399 26.2682 1.79399C26.2682 1.73723 26.2682 1.68047 26.2682 1.62199C25.1982 0.709091 24.4501 0.755556 23.2905 1.41236Z" fill="#E2E6EF"/>
<path d="M23.2905 1.41236C23.2123 1.45543 23.1342 1.4985 23.0536 1.54288C22.5215 1.83879 22.0037 2.15496 21.4863 2.47575C20.9832 2.78277 20.4705 3.07269 19.958 3.36349C19.8521 3.42372 19.7463 3.48396 19.6405 3.54422C19.4416 3.65748 19.2426 3.77062 19.0436 3.88369C18.7569 4.04666 18.4705 4.21017 18.1842 4.37399C18.1842 4.43075 18.1842 4.48751 18.1842 4.54599C18.2373 4.55242 18.2904 4.55885 18.3451 4.56547C19.2075 4.69935 19.8753 5.15925 20.4202 5.83599C21.0182 6.71303 21.3172 7.536 21.3212 8.59605C21.3226 8.6746 21.3239 8.75315 21.3253 8.83407C21.3293 9.08171 21.3317 9.32933 21.334 9.57699C21.3371 9.82709 21.3406 10.0772 21.3445 10.3273C21.3469 10.4821 21.3487 10.637 21.35 10.7919C21.3567 11.3209 21.3567 11.3209 21.4522 11.512C21.4659 11.6767 21.4659 11.6767 21.463 11.856C21.4632 11.9163 21.4634 11.9766 21.4636 12.0387C21.462 12.2079 21.462 12.2079 21.3662 12.372C21.3464 12.5977 21.3344 12.8178 21.3286 13.0439C21.3247 13.1051 21.3207 13.1664 21.3167 13.2295C21.3113 13.482 21.3118 13.6843 21.4807 13.8818C21.6097 13.9869 21.7457 14.083 21.8822 14.178C21.9106 14.2347 21.939 14.2915 21.9682 14.35C22.025 14.35 22.0817 14.35 22.1402 14.35C22.1623 14.3998 22.1844 14.4495 22.2071 14.5008C22.3221 14.7121 22.453 14.8584 22.6186 15.0326C24.7236 17.3795 25.8263 20.5056 25.6662 23.638C25.5707 24.6113 25.1947 25.4291 24.6342 26.218C24.9826 26.1665 25.2374 26.054 25.5433 25.8814C25.6346 25.8301 25.726 25.7787 25.8201 25.7258C25.9148 25.6719 26.0094 25.6179 26.107 25.5622C26.1997 25.5102 26.2923 25.4583 26.3878 25.4047C26.9187 25.1047 27.4378 24.792 27.9487 24.459C28.1634 24.324 28.3822 24.2027 28.6064 24.0841C29.0117 23.8675 29.4004 23.6305 29.7889 23.3854C30.7194 22.7983 31.6706 22.2559 32.64 21.7355C34.1797 20.9071 35.2514 20.2154 35.8142 18.478C35.8239 18.4155 35.8335 18.3529 35.8435 18.2885C35.9301 18.0526 36.0864 17.9984 36.3034 17.8814C37.1039 17.4224 37.5423 16.9113 37.9051 16.0646C38.3883 14.0002 37.7925 11.6606 36.7188 9.87041C35.5307 7.96173 34.0024 6.17613 31.7309 5.64047C30.9615 5.48164 30.3136 5.60794 29.6491 6.02949C29.3118 6.20769 29.2081 6.19682 28.8482 6.09399C28.3427 5.9531 27.9111 5.90012 27.3862 5.92199C27.427 5.83508 27.4678 5.74816 27.5099 5.65861C27.7904 4.98805 27.7499 4.37723 27.5582 3.68599C27.2847 3.02151 26.9551 2.30727 26.4402 1.79399C26.3835 1.79399 26.3267 1.79399 26.2682 1.79399C26.2682 1.73723 26.2682 1.68047 26.2682 1.62199C25.1982 0.709091 24.4501 0.755556 23.2905 1.41236Z" fill="#AAD9FF"/>
<path d="M2.84331 15.2026C2.6193 15.3114 2.4041 15.4298 2.18823 15.554C2.11107 15.5963 2.03391 15.6387 1.95442 15.6823C1.50722 15.9362 1.12452 16.161 0.919731 16.6559C0.800838 17.6962 1.12442 18.5139 1.75823 19.338C2.1162 19.717 2.50093 20.0965 3.04722 20.119C3.58779 20.1443 3.85954 20.3156 4.26533 20.6713C4.42423 20.8 4.42423 20.8 4.59623 20.8C4.59623 20.8568 4.59623 20.9135 4.59623 20.972C4.71192 21.0784 4.71192 21.0784 4.87237 21.1957C4.92979 21.2379 4.98722 21.28 5.04639 21.3234C5.10714 21.3671 5.16789 21.4107 5.23048 21.4557C5.32061 21.5223 5.32061 21.5223 5.41256 21.5901C5.8636 21.918 5.8636 21.918 6.05823 21.918C6.05823 21.9748 6.05823 22.0315 6.05823 22.09C6.09871 22.1292 6.1392 22.1683 6.18091 22.2087C6.33701 22.3694 6.3682 22.4689 6.41735 22.6853C6.43326 22.7516 6.44916 22.8179 6.46556 22.8862C6.48191 22.9569 6.49826 23.0276 6.51511 23.1005C6.77975 24.1712 7.17349 25.1565 7.69223 26.132C7.59462 26.1702 7.59462 26.1702 7.49504 26.2093C7.20172 26.3286 6.98503 26.437 6.74623 26.648C6.68186 27.0535 6.69222 27.2323 6.88061 27.594C7.09023 27.766 7.09023 27.766 7.36973 27.8197C7.72868 27.7599 7.93228 27.6444 8.2257 27.4385C8.38869 27.3207 8.38869 27.3207 8.63823 27.25C8.6542 27.3174 8.67016 27.3848 8.68661 27.4542C8.9447 28.1051 9.38686 28.6355 9.89531 29.1097C10.0245 29.2256 10.0245 29.2256 10.1002 29.4C10.157 29.4 10.2138 29.4 10.2722 29.4C10.2722 29.4568 10.2722 29.5135 10.2722 29.572C10.484 29.7911 10.7265 29.9788 10.9602 30.174C11.0691 30.2683 11.0691 30.2683 11.1803 30.3645C12.3989 31.3992 13.909 32.2169 15.5495 32.1732C16.5467 32.0801 17.3539 31.7131 18.0122 30.948C18.3891 30.4555 18.6044 29.99 18.7862 29.4C19.1092 29.5295 19.432 29.6595 19.7547 29.79C19.8643 29.8342 19.974 29.8784 20.0837 29.9224C20.2421 29.9858 20.4002 30.0498 20.5583 30.1139C20.6533 30.1521 20.7484 30.1904 20.8463 30.2299C21.2854 30.4245 21.5924 30.6408 21.9199 30.991C22.3392 31.4187 22.7284 31.6969 23.3442 31.722C23.6667 31.6414 23.6667 31.6414 23.9462 31.464C24.0504 31.2058 24.0926 31.0447 24.1182 30.776C24.1262 30.71 24.1342 30.6441 24.1424 30.5761C24.1935 29.7827 23.8776 29.0753 23.3711 28.4755C23.2196 28.3102 23.2196 28.3102 23.0862 28.196C23.0295 28.196 22.9727 28.196 22.9142 28.196C22.8983 28.1445 22.8823 28.0931 22.8659 28.0401C22.6875 27.7687 22.4479 27.6647 22.1402 27.594C22.0326 27.6013 21.9249 27.6086 21.814 27.6162C21.3741 27.6223 21.151 27.4145 20.8341 27.1317C20.7223 27.0371 20.6105 26.9426 20.4985 26.8482C20.4428 26.8004 20.387 26.7525 20.3296 26.7033C20.0725 26.4863 19.8063 26.282 19.5387 26.0782C19.4496 26.0097 19.3605 25.9412 19.2686 25.8706C19.1113 25.7524 18.95 25.6392 18.7862 25.53C18.7133 25.3495 18.7133 25.3495 18.668 25.1322C17.8233 21.7926 15.9358 18.5327 12.9382 16.672C12.739 16.6105 12.739 16.6105 12.5942 16.586C12.5942 16.5292 12.5942 16.4725 12.5942 16.414C12.2735 16.239 12.1067 16.156 11.7342 16.156C11.7342 16.0992 11.7342 16.0425 11.7342 15.984C11.6162 15.9423 11.4979 15.9012 11.3795 15.8604C11.3136 15.8374 11.2478 15.8145 11.1799 15.7908C10.5124 15.5938 9.84348 15.6264 9.15423 15.64C9.07341 15.6394 8.9926 15.6389 8.90933 15.6383C8.21838 15.6613 7.73771 16.0154 7.26559 16.5017C7.14512 16.6405 7.03088 16.7847 6.91823 16.93C5.86898 16.7376 5.13358 16.4508 4.45446 15.599C4.01024 15.1223 3.45267 14.9688 2.84331 15.2026Z" fill="#C9CDE0"/>
<path d="M29.6491 6.02949C29.2207 6.25582 28.9796 6.13183 28.5311 6.00262C27.9988 5.87458 27.4954 5.78961 26.9838 6.0305C26.8063 6.14134 26.6312 6.2559 26.4577 6.37282C25.9722 6.69956 25.4594 6.9814 24.9514 7.27112C23.6619 8.00853 23.6619 8.00853 23.1722 8.32999C23.1722 8.35837 23.1722 8.38675 23.1722 8.41599C23.2768 8.42863 23.2768 8.42863 23.3835 8.44152C25.1088 8.6745 26.6213 9.52114 27.793 10.8085C27.9022 10.91 27.9022 10.91 28.0742 10.91C28.1075 10.985 28.1075 10.985 28.1414 11.0615C28.255 11.2701 28.3827 11.4109 28.5472 11.5819C30.6047 13.8658 31.7006 16.9375 31.6123 19.9837C31.5729 20.6821 31.3733 21.3196 31.0644 21.9432C30.9982 22.09 30.9982 22.09 30.9982 22.262C30.9415 22.262 30.8847 22.262 30.8262 22.262C30.5682 22.5597 30.5682 22.5597 30.5682 22.778C30.925 22.6984 31.2262 22.5411 31.5465 22.3695C31.6407 22.3191 31.6407 22.3191 31.7368 22.2677C32.284 21.9719 32.8251 21.6657 33.3632 21.3536C33.4412 21.3091 33.5192 21.2647 33.5995 21.2188C34.5615 20.6538 35.3025 20.0369 35.6089 18.9417C35.7495 18.4486 35.855 18.0923 36.3249 17.8222C36.4692 17.7525 36.6143 17.6843 36.7602 17.618C37.3675 17.1976 37.7954 16.5334 37.9642 15.812C38.3893 13.3265 37.461 10.8679 36.0478 8.86123C34.7244 7.02372 32.0406 4.51239 29.6491 6.02949Z" fill="#E1E6EF"/>
<path d="M8.66107 17.3264C7.56983 17.9962 6.98597 18.6011 6.66023 19.854C6.21867 21.9314 6.84751 23.9495 7.77823 25.788C7.94851 25.788 8.11879 25.788 8.29423 25.788C8.32261 25.7312 8.35099 25.6745 8.38023 25.616C8.49375 25.616 8.60727 25.616 8.72423 25.616C8.91773 25.53 8.91773 25.53 9.06823 25.444C9.04273 25.3817 9.01724 25.3194 8.99096 25.2552C8.59854 24.256 8.45638 23.2112 8.81023 22.176C8.99624 21.906 9.13852 21.7565 9.41223 21.574C10.3314 21.473 11.026 21.6624 11.748 22.2381C12.2568 22.6654 12.6405 23.1284 12.9382 23.724C12.995 23.724 13.0517 23.724 13.1102 23.724C13.199 23.9813 13.2844 24.2391 13.3682 24.498C13.3992 24.5904 13.4301 24.6829 13.462 24.7782C13.7431 25.6727 13.9211 26.5646 13.4727 27.4327C13.2855 27.7217 13.0756 27.9553 12.7662 28.11C12.0475 28.1604 11.4809 27.98 10.8742 27.594C10.8175 27.594 10.7607 27.594 10.7022 27.594C10.7022 27.5372 10.7022 27.4805 10.7022 27.422C10.5796 27.3044 10.5796 27.3044 10.4174 27.1747C10.2293 27.0209 10.0987 26.9037 9.96048 26.7017C9.84223 26.562 9.84223 26.562 9.65108 26.5344C9.34198 26.5701 9.16913 26.6897 8.91236 26.863C8.82843 26.9189 8.74451 26.9747 8.65805 27.0323C8.5631 27.0975 8.5631 27.0975 8.46623 27.164C8.55137 27.2066 8.55137 27.2066 8.63823 27.25C8.67016 27.3564 8.67016 27.3564 8.70273 27.465C8.84705 27.8691 9.07983 28.1913 9.32623 28.54C9.35461 28.4832 9.38299 28.4265 9.41223 28.368C9.57001 28.3728 9.57001 28.3728 9.75623 28.454C9.85301 28.5713 9.94932 28.689 10.0431 28.8087C10.9262 29.8038 12.3738 30.693 13.721 30.7965C14.4026 30.8108 14.9168 30.7578 15.5182 30.432C15.598 30.3892 15.6779 30.3464 15.7601 30.3023C16.6504 29.7821 17.1924 29.0626 17.469 28.0714C17.9511 25.8473 17.1773 23.5954 16.1202 21.66C16.0582 21.5439 16.0582 21.5439 15.9949 21.4255C15.4137 20.397 14.6058 19.4223 13.7122 18.65C13.6555 18.65 13.5987 18.65 13.5402 18.65C13.5402 18.5932 13.5402 18.5365 13.5402 18.478C13.3782 18.345 13.2182 18.2253 13.0457 18.1071C12.9956 18.0725 12.9454 18.0379 12.8937 18.0023C12.4202 17.6857 11.9245 17.4696 11.3902 17.274C11.3258 17.2426 11.2614 17.2112 11.1951 17.1789C10.4542 16.9362 9.35763 16.9806 8.66107 17.3264Z" fill="#E2E6EF"/>
<path d="M17.4727 4.75595C17.4024 4.79871 17.332 4.84148 17.2596 4.88554C17.1851 4.93135 17.1107 4.97716 17.034 5.02436C16.8783 5.11909 16.7225 5.21371 16.5667 5.30823C16.4904 5.35453 16.4142 5.40083 16.3356 5.44853C16.0531 5.61831 15.7676 5.78141 15.4806 5.94349C15.2923 6.05075 15.1042 6.15825 14.9162 6.26599C14.866 6.29479 14.8157 6.32358 14.764 6.35325C13.4977 7.08496 13.4977 7.08496 13.3057 7.65576C13.2131 8.02592 13.1766 8.37749 13.1962 8.75999C13.1217 8.78127 13.0472 8.80256 12.9705 8.82449C12.6035 8.96041 12.2923 9.12005 12.0406 9.42649C11.9248 9.8896 12.0361 10.275 12.2717 10.6735C12.4606 10.95 12.6497 11.1624 12.9382 11.34C13.0518 11.34 13.1653 11.34 13.2822 11.34C13.2822 12.0779 13.2822 12.8157 13.2822 13.576C13.4933 13.5955 13.7044 13.615 13.9219 13.6351C14.5118 13.7039 14.9475 13.8207 15.4322 14.178C15.5663 14.2746 15.5663 14.2746 15.703 14.3732C16.6361 15.0252 16.6361 15.0252 17.3242 15.898C17.6554 15.8461 17.9143 15.746 18.2111 15.5916C18.287 15.5525 18.363 15.5133 18.4412 15.473C18.4983 15.443 18.5554 15.4129 18.6142 15.382C18.6142 15.3252 18.6142 15.2685 18.6142 15.21C18.7281 15.1761 18.7281 15.1761 18.8443 15.1415C19.1228 15.0407 19.3314 14.923 19.5764 14.7585C20.3577 14.2308 20.3577 14.2308 21.2177 13.8625C21.3662 13.748 21.3662 13.748 21.4156 13.4362C21.4205 13.3109 21.4237 13.1854 21.4254 13.06C21.4187 12.6164 21.4187 12.6164 21.5382 12.2C21.5497 12.0387 21.5497 12.0387 21.549 11.856C21.5493 11.7655 21.5493 11.7655 21.5497 11.6732C21.5382 11.512 21.5382 11.512 21.4522 11.34C21.4428 11.0826 21.4383 10.8268 21.4371 10.5693C21.4351 10.41 21.433 10.2507 21.4309 10.0913C21.4279 9.84074 21.4254 9.5902 21.4242 9.33961C21.4153 7.74521 21.1763 6.53532 20.0494 5.33074C19.3223 4.63958 18.3945 4.19037 17.4727 4.75595Z" fill="#E1E5EF"/>
<path d="M23.2905 1.41236C23.1732 1.47697 23.1732 1.47697 23.0536 1.54288C22.5215 1.83879 22.0037 2.15496 21.4863 2.47575C20.9832 2.78277 20.4705 3.07269 19.958 3.36349C19.8521 3.42372 19.7463 3.48396 19.6405 3.54422C19.4416 3.65748 19.2426 3.77062 19.0436 3.88369C18.7569 4.04666 18.4705 4.21017 18.1842 4.37399C18.1842 4.43075 18.1842 4.48751 18.1842 4.54599C18.2373 4.55242 18.2904 4.55885 18.3451 4.56547C19.2075 4.69935 19.8753 5.15925 20.4202 5.83599C21.1969 6.9673 21.4204 8.02072 21.4522 9.36199C22.5925 8.74597 23.7204 8.10989 24.8351 7.44883C25.1336 7.2719 25.4336 7.09762 25.7341 6.92409C25.905 6.82477 26.0758 6.72544 26.2467 6.62611C26.3681 6.55656 26.3681 6.55656 26.492 6.48561C27.4533 5.92439 27.4533 5.92439 27.6439 5.45134C27.8516 4.23259 27.465 3.26885 26.8081 2.25288C26.574 1.92733 26.574 1.92733 26.4402 1.79399C26.3835 1.79399 26.3267 1.79399 26.2682 1.79399C26.2682 1.73723 26.2682 1.68047 26.2682 1.62199C25.1982 0.709091 24.4501 0.755556 23.2905 1.41236Z" fill="#88C9FF"/>
<path d="M29.6491 6.01874C29.3688 6.1774 29.1658 6.23501 28.8482 6.26599C29.075 6.41717 29.246 6.49351 29.4986 6.58311C30.116 6.82468 30.626 7.20836 31.1272 7.63661C31.3422 7.81399 31.3422 7.81399 31.5142 7.81399C31.5142 7.87075 31.5142 7.92751 31.5142 7.98599C31.6284 8.09215 31.6284 8.09215 31.7937 8.22249C32.6233 8.92973 33.2824 9.80483 33.8362 10.738C33.9061 10.8419 33.976 10.9458 34.0459 11.0497C34.6285 11.9919 35.0465 13.0279 35.3368 14.0938C35.3832 14.2604 35.4349 14.4255 35.4867 14.5905C35.8274 15.7496 35.7613 16.9369 35.7282 18.134C36.528 17.8798 37.1751 17.419 37.6078 16.6908C38.3578 15.2369 38.0931 13.5022 37.6357 11.9931C36.8436 9.58013 35.2325 7.21962 32.9373 6.01336C31.8145 5.54499 30.7323 5.36501 29.6491 6.01874Z" fill="#CFEAFF"/>
<path d="M13.7488 6.98086C13.3037 7.44649 13.2076 7.92131 13.1855 8.55036C13.189 8.61954 13.1926 8.68872 13.1962 8.75999C13.0845 8.79192 13.0845 8.79192 12.9705 8.82449C12.6035 8.96041 12.2923 9.12005 12.0406 9.42649C11.9248 9.8896 12.0361 10.275 12.2717 10.6735C12.4606 10.95 12.6497 11.1624 12.9382 11.34C13.0518 11.34 13.1653 11.34 13.2822 11.34C13.2822 12.0779 13.2822 12.8157 13.2822 13.576C13.4933 13.5955 13.7044 13.615 13.9219 13.6351C14.5118 13.7039 14.9475 13.8207 15.4322 14.178C15.5206 14.2414 15.6089 14.3048 15.7 14.3701C16.2381 14.7657 16.7253 15.1872 17.1858 15.6729C17.2315 15.7188 17.2772 15.7647 17.3242 15.812C17.3526 15.812 17.381 15.812 17.4102 15.812C17.4386 15.1876 17.467 14.5633 17.4962 13.92C17.6665 14.0051 17.8368 14.0903 18.0122 14.178C18.2434 14.2156 18.2434 14.2156 18.4422 14.178C18.6153 13.9963 18.6947 13.8852 18.7217 13.6334C18.6579 13.0002 18.4648 12.6438 18.0122 12.2054C17.7997 12.0925 17.6477 12.1073 17.4102 12.114C17.412 12.0512 17.4138 11.9884 17.4157 11.9237C17.4229 11.6342 17.4273 11.3447 17.4317 11.0551C17.4361 10.907 17.4361 10.907 17.4405 10.756C17.454 9.55887 17.0194 8.53459 16.1847 7.67424C15.8887 7.38399 15.8887 7.38399 15.6902 7.38399C15.6902 7.32723 15.6902 7.27047 15.6902 7.21199C14.2206 6.58754 14.2206 6.58754 13.7488 6.98086Z" fill="#B0B7D0"/>
<path d="M10.713 14.6617C9.92583 14.6744 9.09414 15.201 8.46623 15.64C8.46623 15.6684 8.46623 15.6967 8.46623 15.726C8.52209 15.7251 8.57796 15.7242 8.63552 15.7233C8.89263 15.7196 9.14973 15.7174 9.40685 15.7152C9.49471 15.7138 9.58256 15.7124 9.67308 15.7109C10.2153 15.7074 10.6947 15.7613 11.2182 15.898C11.39 15.9281 11.5619 15.9575 11.7342 15.984C11.7342 16.0407 11.7342 16.0975 11.7342 16.156C12.1599 16.2837 12.1599 16.2837 12.5942 16.414C12.5942 16.4708 12.5942 16.5275 12.5942 16.586C12.737 16.6764 12.737 16.6764 12.9436 16.7849C13.6153 17.1737 14.1724 17.7004 14.7442 18.22C14.81 18.2784 14.8757 18.3368 14.9434 18.397C15.7626 19.1649 16.4405 20.165 16.9802 21.144C17.0201 21.2126 17.06 21.2812 17.1012 21.3519C17.7205 22.4406 18.1998 23.5763 18.5276 24.7842C18.5562 24.8884 18.5848 24.9926 18.6142 25.1C18.6326 25.1879 18.651 25.2758 18.67 25.3664C18.8431 25.7381 19.124 25.9142 19.4527 26.1481C19.5855 26.2452 19.7182 26.3424 19.8508 26.4397C19.9175 26.4883 19.9841 26.5369 20.0528 26.587C20.2388 26.7269 20.4172 26.8723 20.5946 27.0229C20.6745 27.0899 20.6745 27.0899 20.7561 27.1582C20.8561 27.2427 20.9551 27.3284 21.0529 27.4155C21.1899 27.5292 21.1899 27.5292 21.4522 27.68C21.8469 27.6146 22.1729 27.4072 22.5165 27.207C22.6076 27.1547 22.6987 27.1023 22.7926 27.0484C22.8611 27.0014 22.9296 26.9544 23.0002 26.906C23.0002 26.8492 23.0002 26.7925 23.0002 26.734C22.8205 26.5796 22.6409 26.4355 22.452 26.2932C22.4001 26.253 22.3482 26.2128 22.2948 26.1713C21.9047 25.874 21.9047 25.874 21.7102 25.874C21.7102 25.8172 21.7102 25.7605 21.7102 25.702C21.5659 25.5852 21.4162 25.4752 21.2641 25.3687C21.0124 25.1915 20.7664 25.0157 20.5287 24.8198C20.3342 24.67 20.3342 24.67 20.1622 24.67C20.1551 24.5618 20.148 24.4536 20.1407 24.3421C20.0957 23.9355 19.9758 23.5876 19.8286 23.2077C19.6597 22.7563 19.5262 22.2936 19.3882 21.832C19.3315 21.832 19.2747 21.832 19.2162 21.832C19.1843 21.7238 19.1524 21.6156 19.1195 21.5041C18.7641 20.4445 18.0828 19.5498 17.3961 18.6829C17.1525 18.3667 16.9249 18.039 16.6964 17.7117C16.624 17.6228 16.624 17.6228 16.5502 17.532C16.4935 17.532 16.4367 17.532 16.3782 17.532C16.3782 17.4752 16.3782 17.4185 16.3782 17.36C16.0164 16.9866 15.5895 16.6734 15.1705 16.3673C15.0429 16.2723 14.9189 16.1725 14.7966 16.0707C13.6234 15.1679 12.15 14.8008 10.713 14.6617Z" fill="#F2F6FA"/>
<path d="M9.1596 21.6277C8.49601 22.3919 8.4957 23.0833 8.55223 24.068C8.63782 24.5644 8.7457 24.965 9.06823 25.358C9.49612 25.204 9.87242 24.9719 10.2574 24.7342C10.5581 24.5557 10.78 24.4373 11.1322 24.498C11.418 24.833 11.3902 24.9776 11.3902 25.444C10.4963 25.9548 10.4963 25.9548 9.58423 26.476C9.72613 26.6179 9.86803 26.7598 10.0142 26.906C10.0633 26.9571 10.1124 27.0082 10.163 27.0609C10.2822 27.1845 10.4061 27.3034 10.5302 27.422C10.587 27.422 10.6438 27.422 10.7022 27.422C10.7022 27.4787 10.7022 27.5355 10.7022 27.594C11.3054 28.0945 11.9981 28.2589 12.7662 28.196C13.1774 28.0334 13.4167 27.7147 13.6262 27.336C14.0334 26.299 13.7548 25.2473 13.3548 24.2501C13.2769 24.0726 13.1965 23.8975 13.1102 23.724C13.0535 23.724 12.9967 23.724 12.9382 23.724C12.9188 23.6495 12.8994 23.575 12.8794 23.4982C12.7507 23.1683 12.5709 22.9448 12.3309 22.692C12.2887 22.6471 12.2465 22.6021 12.2031 22.5558C11.4653 21.7894 10.2319 21.0346 9.1596 21.6277Z" fill="#C8CDE1"/>
<path d="M21.3662 7.72799C21.3378 7.72799 21.3095 7.72799 21.2802 7.72799C21.2518 8.01179 21.2235 8.29559 21.1942 8.58799C21.0807 8.58799 20.9672 8.58799 20.8502 8.58799C20.8502 8.64475 20.8502 8.70151 20.8502 8.75999C20.7887 8.78294 20.7272 8.80589 20.6638 8.82953C20.4152 8.93412 20.1947 9.05692 19.9634 9.19536C19.4751 9.48431 18.9823 9.76392 18.487 10.0406C18.1824 10.2111 17.8804 10.3844 17.5822 10.566C17.5538 10.4241 17.5255 10.2822 17.4962 10.136C17.4678 10.136 17.4395 10.136 17.4102 10.136C17.4102 10.7887 17.4102 11.4415 17.4102 12.114C17.5805 12.1707 17.7508 12.2275 17.9262 12.286C18.2906 12.5825 18.4661 12.8736 18.6142 13.318C18.6488 13.678 18.6458 13.7867 18.4422 14.092C18.1164 14.136 17.8739 14.0658 17.5822 13.92C17.5538 13.8632 17.5255 13.8065 17.4962 13.748C17.388 13.9644 17.3923 14.1275 17.383 14.3695C17.3794 14.4582 17.3758 14.5468 17.3721 14.6382C17.3687 14.7311 17.3653 14.824 17.3619 14.9197C17.3581 15.0133 17.3544 15.1069 17.3506 15.2033C17.3415 15.4348 17.3327 15.6664 17.3242 15.898C17.6546 15.8377 17.9123 15.747 18.2111 15.5916C18.287 15.5525 18.363 15.5133 18.4412 15.473C18.4983 15.443 18.5554 15.4129 18.6142 15.382C18.6142 15.3252 18.6142 15.2685 18.6142 15.21C18.7281 15.1761 18.7281 15.1761 18.8443 15.1415C19.1228 15.0407 19.3314 14.923 19.5764 14.7585C20.3577 14.2308 20.3577 14.2308 21.2177 13.8625C21.3662 13.748 21.3662 13.748 21.4156 13.4362C21.4205 13.3109 21.4237 13.1854 21.4254 13.06C21.4187 12.6164 21.4187 12.6164 21.5382 12.2C21.5497 12.0387 21.5497 12.0387 21.549 11.856C21.5493 11.7655 21.5493 11.7655 21.5497 11.6732C21.5382 11.512 21.5382 11.512 21.4522 11.34C21.4422 11.2232 21.437 11.106 21.4346 10.9889C21.4329 10.9166 21.4311 10.8443 21.4294 10.7698C21.4279 10.6917 21.4265 10.6136 21.425 10.5331C21.4232 10.4531 21.4214 10.3732 21.4196 10.2909C21.414 10.035 21.4089 9.77912 21.4039 9.52324C21.4001 9.35001 21.3964 9.17678 21.3926 9.00354C21.3834 8.57837 21.3747 8.15318 21.3662 7.72799Z" fill="#E1E5F0"/>
<path d="M10.1594 17.0751C10.0891 17.0737 10.0189 17.0723 9.94654 17.0709C9.45503 17.0705 9.08291 17.1454 8.63823 17.36C8.59566 17.4877 8.59566 17.4877 8.55223 17.618C8.61786 17.6038 8.68349 17.5896 8.7511 17.575C9.85876 17.4248 10.8723 17.628 11.8337 18.2109C12.0219 18.3238 12.2156 18.4047 12.4222 18.478C12.4222 18.5347 12.4222 18.5915 12.4222 18.65C12.5606 18.7736 12.5606 18.7736 12.7447 18.908C12.8046 18.9523 12.8645 18.9967 12.9261 19.0424C13.1102 19.166 13.1102 19.166 13.2994 19.257C13.5002 19.362 13.5296 19.4823 13.6262 19.682C13.7114 19.7104 13.7965 19.7387 13.8842 19.768C13.9446 19.8811 14.0015 19.9961 14.0562 20.112C14.2064 20.2927 14.3648 20.4637 14.5242 20.6364C14.6758 20.8016 14.6758 20.8016 14.7442 21.058C14.801 21.058 14.8577 21.058 14.9162 21.058C14.9375 21.1538 14.9588 21.2496 14.9807 21.3482C15.0882 21.66 15.0882 21.66 15.2602 21.7514C15.317 21.778 15.3737 21.8046 15.4322 21.832C15.527 22.0583 15.527 22.0583 15.6042 22.348C15.6638 22.5026 15.7248 22.6567 15.787 22.8102C15.8174 22.8854 15.8477 22.9606 15.879 23.038C15.9019 23.0941 15.9247 23.1502 15.9482 23.208C16.005 23.208 16.0617 23.208 16.1202 23.208C16.2054 23.6337 16.2054 23.6337 16.2922 24.068C16.349 24.068 16.4057 24.068 16.4642 24.068C16.4775 24.201 16.4775 24.201 16.4911 24.3367C16.5178 24.5636 16.5554 24.7759 16.6134 24.9972C16.79 25.6786 16.8338 26.3165 16.8351 27.0189C16.8356 27.1061 16.836 27.1932 16.8365 27.2831C16.8298 27.9977 16.758 28.6337 16.4051 29.2656C16.2858 29.4803 16.2858 29.4803 16.2062 29.658C16.2488 29.7431 16.2488 29.7431 16.2922 29.83C17.0085 29.3092 17.3357 28.6955 17.5231 27.8359C17.8457 25.6524 17.1566 23.5575 16.1202 21.66C16.0582 21.5439 16.0582 21.5439 15.9949 21.4255C15.4137 20.397 14.6058 19.4223 13.7122 18.65C13.6555 18.65 13.5987 18.65 13.5402 18.65C13.5402 18.5932 13.5402 18.5365 13.5402 18.478C13.3782 18.345 13.2182 18.2253 13.0457 18.1071C12.9956 18.0725 12.9454 18.0379 12.8937 18.0023C12.4202 17.6857 11.9245 17.4696 11.3902 17.274C11.3258 17.2426 11.2614 17.2112 11.1951 17.1789C10.8498 17.0666 10.5201 17.0737 10.1594 17.0751Z" fill="#FAFBFC"/>
<path d="M2.84028 15.2056C2.61827 15.3147 2.40328 15.4318 2.18823 15.554C2.1134 15.595 2.03857 15.636 1.96147 15.6783C1.77831 15.7789 1.59598 15.8808 1.41423 15.984C1.41423 16.0124 1.41423 16.0407 1.41423 16.07C1.47975 16.0754 1.54527 16.0809 1.61277 16.0865C2.3702 16.1763 2.85464 16.4137 3.35125 16.9982C3.38783 17.0449 3.42441 17.0915 3.4621 17.1396C3.52419 17.2123 3.58627 17.2851 3.65023 17.36C3.76375 17.36 3.87727 17.36 3.99423 17.36C3.99423 17.4167 3.99423 17.4735 3.99423 17.532C4.04408 17.5493 4.09393 17.5667 4.14529 17.5845C4.37268 17.6637 4.60002 17.7429 4.82735 17.8222C4.945 17.8631 4.945 17.8631 5.06503 17.9049C5.14124 17.9315 5.21746 17.9581 5.29599 17.9855C5.36579 18.0098 5.4356 18.0341 5.50752 18.0592C5.6514 18.1113 5.7935 18.1684 5.93387 18.2293C6.14423 18.306 6.14423 18.306 6.48823 18.306C6.52282 18.1783 6.52282 18.1783 6.5581 18.048C6.62667 17.8067 6.70647 17.5729 6.79561 17.3385C6.83015 17.2474 6.83015 17.2474 6.86538 17.1544C6.88282 17.1087 6.90026 17.063 6.91823 17.016C6.86802 17.0001 6.81782 16.9842 6.76609 16.9678C5.4252 16.5392 5.4252 16.5392 4.42725 15.5899C4.01409 15.0991 3.42757 14.9751 2.84028 15.2056Z" fill="#F0F3F8"/>
<path d="M23.2905 1.41236C23.1732 1.47697 23.1732 1.47697 23.0536 1.54288C22.5215 1.83879 22.0037 2.15496 21.4863 2.47575C20.9832 2.78277 20.4705 3.07269 19.958 3.36349C19.8521 3.42372 19.7463 3.48396 19.6405 3.54422C19.4416 3.65748 19.2426 3.77062 19.0436 3.88369C18.7569 4.04666 18.4705 4.21017 18.1842 4.37399C18.1842 4.43075 18.1842 4.48751 18.1842 4.54599C18.2413 4.55641 18.2984 4.56683 18.3572 4.57757C18.7462 4.65138 19.113 4.72141 19.4742 4.88999C19.4742 4.83323 19.4742 4.77647 19.4742 4.71799C19.5416 4.70025 19.609 4.68251 19.6785 4.66424C20.0089 4.53892 20.279 4.37847 20.5785 4.19326C20.9169 3.98997 21.2621 3.80069 21.6081 3.61074C22.1494 3.31249 22.6785 3.00112 23.2025 2.67314C23.9473 2.21355 24.7113 1.75547 25.4942 1.36399C25.5226 1.47751 25.551 1.59103 25.5802 1.70799C25.637 1.70799 25.6937 1.70799 25.7522 1.70799C25.7806 1.76475 25.809 1.82151 25.8382 1.87999C26.0085 1.87999 26.1788 1.87999 26.3542 1.87999C26.3542 1.93675 26.3542 1.99351 26.3542 2.05199C26.411 2.02361 26.4677 1.99523 26.5262 1.96599C26.4978 1.90923 26.4695 1.85247 26.4402 1.79399C26.3835 1.79399 26.3267 1.79399 26.2682 1.79399C26.2682 1.73723 26.2682 1.68047 26.2682 1.62199C25.1982 0.709091 24.4501 0.755556 23.2905 1.41236Z" fill="#AAD9FF"/>
<path d="M10.7044 24.4425C10.3549 24.5539 10.0516 24.7486 9.7401 24.9387C9.66829 24.9814 9.59648 25.0241 9.5225 25.0681C9.31323 25.1926 9.10469 25.3182 8.89623 25.444C8.23156 25.8522 8.23156 25.8522 7.53098 26.1911C7.22721 26.3187 6.99209 26.4261 6.74623 26.648C6.68186 27.0535 6.69222 27.2323 6.88061 27.594C7.09023 27.766 7.09023 27.766 7.36502 27.8013C7.76438 27.7582 8.00349 27.6011 8.3211 27.3736C8.98161 26.9223 9.6636 26.5169 10.3582 26.1212C10.5535 26.01 10.7488 25.8987 10.9441 25.7873C11.028 25.7397 11.1119 25.6922 11.1984 25.6432C11.3902 25.53 11.3902 25.53 11.4762 25.444C11.4749 25.2754 11.4749 25.2754 11.4547 25.0677C11.4461 24.9656 11.4461 24.9656 11.4373 24.8615C11.3332 24.4379 11.1272 24.3602 10.7044 24.4425Z" fill="#88C9FF"/>
<path d="M21.3662 7.72799C21.3378 7.72799 21.3095 7.72799 21.2802 7.72799C21.2518 8.01179 21.2235 8.29559 21.1942 8.58799C21.0807 8.58799 20.9672 8.58799 20.8502 8.58799C20.8502 8.64475 20.8502 8.70151 20.8502 8.75999C20.7887 8.78294 20.7272 8.80589 20.6638 8.82953C20.4152 8.93412 20.1947 9.05692 19.9634 9.19536C19.4751 9.48431 18.9823 9.76392 18.487 10.0406C18.1824 10.2111 17.8804 10.3844 17.5822 10.566C17.5538 10.4241 17.5255 10.2822 17.4962 10.136C17.4678 10.136 17.4395 10.136 17.4102 10.136C17.4102 10.7887 17.4102 11.4415 17.4102 12.114C17.467 12.114 17.5237 12.114 17.5822 12.114C17.5822 12.0572 17.5822 12.0005 17.5822 11.942C17.6443 11.9333 17.7064 11.9247 17.7704 11.9158C18.0425 11.8485 18.2109 11.7445 18.4422 11.5872C18.9007 11.2849 19.3709 11.0257 19.8565 10.7709C20.0762 10.652 20.0762 10.652 20.1622 10.566C20.4832 10.5295 20.6353 10.538 20.9094 10.7165C21.1318 10.923 21.1318 10.923 21.3662 11.254C21.3662 10.0904 21.3662 8.92683 21.3662 7.72799Z" fill="#C8CDE0"/>
<path d="M21.3662 12.458C21.2527 12.4864 21.1392 12.5148 21.0222 12.544C21.0222 12.6008 21.0222 12.6575 21.0222 12.716C20.9507 12.7363 20.8792 12.7566 20.8055 12.7775C20.4548 12.907 20.1608 13.0827 19.8451 13.2804C19.4196 13.5499 19.4196 13.5499 18.9582 13.748C18.9582 13.8047 18.9582 13.8615 18.9582 13.92C18.8447 13.8916 18.7312 13.8632 18.6142 13.834C18.5575 13.9191 18.5007 14.0043 18.4422 14.092C18.1164 14.136 17.8739 14.0658 17.5822 13.92C17.5538 13.8632 17.5255 13.8065 17.4962 13.748C17.388 13.9644 17.3923 14.1275 17.383 14.3695C17.3794 14.4582 17.3758 14.5468 17.3721 14.6382C17.3687 14.7311 17.3653 14.824 17.3619 14.9197C17.3581 15.0133 17.3544 15.1069 17.3506 15.2033C17.3415 15.4348 17.3327 15.6664 17.3242 15.898C17.6546 15.8377 17.9123 15.747 18.2111 15.5916C18.325 15.5329 18.325 15.5329 18.4412 15.473C18.4983 15.443 18.5554 15.4129 18.6142 15.382C18.6142 15.3252 18.6142 15.2685 18.6142 15.21C18.6902 15.1874 18.7661 15.1648 18.8443 15.1415C19.1228 15.0407 19.3314 14.923 19.5764 14.7585C20.1527 14.3813 20.7505 14.0559 21.3662 13.748C21.3662 13.3223 21.3662 12.8966 21.3662 12.458Z" fill="#C8CDE1"/>
<path d="M10.627 21.1279C10.5226 21.1266 10.4181 21.1254 10.3105 21.1242C10.0277 21.1431 9.83762 21.1941 9.58423 21.316C9.58423 21.3444 9.58423 21.3727 9.58423 21.402C9.65596 21.4094 9.72768 21.4168 9.80158 21.4245C10.8978 21.5614 11.5753 21.9796 12.3362 22.778C12.5665 23.0777 12.7692 23.3859 12.9382 23.724C12.995 23.724 13.0517 23.724 13.1102 23.724C13.199 23.9813 13.2844 24.2391 13.3682 24.498C13.3992 24.5904 13.4301 24.6829 13.462 24.7782C13.7228 25.6081 13.9154 26.4401 13.5349 27.2607C13.5019 27.3195 13.469 27.3782 13.4351 27.4388C13.3682 27.594 13.3682 27.594 13.4542 27.852C13.8574 27.5412 13.8574 27.5412 13.9702 27.422C13.9702 27.3368 13.9702 27.2517 13.9702 27.164C14.027 27.164 14.0837 27.164 14.1422 27.164C14.4919 26.2654 14.385 25.2165 14.0562 24.326C14.0343 24.2631 14.0123 24.2003 13.9897 24.1355C13.7009 23.403 13.1873 22.6089 12.5942 22.09C12.5375 22.09 12.4807 22.09 12.4222 22.09C12.4222 22.0332 12.4222 21.9765 12.4222 21.918C12.2747 21.7955 12.1213 21.6801 11.9654 21.5686C11.8805 21.5073 11.7957 21.446 11.7084 21.3828C11.3399 21.1402 11.0605 21.1302 10.627 21.1279Z" fill="#FAFBFC"/>
<path d="M5.02623 16.414C4.74243 16.5559 4.45863 16.6978 4.16623 16.844C4.16623 16.9007 4.16623 16.9575 4.16623 17.016C4.11302 17.0249 4.0598 17.0337 4.00498 17.0429C3.82223 17.102 3.82223 17.102 3.65023 17.36C3.76375 17.36 3.87727 17.36 3.99423 17.36C3.99423 17.4167 3.99423 17.4735 3.99423 17.532C4.04408 17.5493 4.09393 17.5667 4.14529 17.5845C4.37268 17.6637 4.60002 17.7429 4.82735 17.8222C4.90579 17.8495 4.98422 17.8768 5.06503 17.9049C5.17935 17.9448 5.17935 17.9448 5.29599 17.9855C5.36579 18.0098 5.4356 18.0341 5.50752 18.0592C5.6514 18.1113 5.7935 18.1684 5.93387 18.2293C6.14423 18.306 6.14423 18.306 6.48823 18.306C6.51129 18.2209 6.53435 18.1357 6.5581 18.048C6.62667 17.8067 6.70647 17.5729 6.79561 17.3385C6.81864 17.2777 6.84166 17.217 6.86538 17.1544C6.88282 17.1087 6.90026 17.063 6.91823 17.016C6.69817 16.9291 6.47779 16.8433 6.2571 16.758C6.19508 16.7334 6.13305 16.7088 6.06915 16.6834C5.73503 16.5553 5.47542 16.4778 5.11223 16.5C5.08385 16.4716 5.05547 16.4432 5.02623 16.414Z" fill="#E2E6EF"/>
<path d="M22.2262 28.97C22.0223 29.1739 22.0267 29.2285 22.022 29.5075C22.0343 30.0194 22.2526 30.2864 22.6079 30.6416C22.8282 30.776 22.8282 30.776 23.0594 30.7652C23.2582 30.69 23.2582 30.69 23.4302 30.518C23.4608 30.0088 23.3272 29.6204 23.0002 29.228C22.7472 28.9831 22.5775 28.9238 22.2262 28.97Z" fill="#74C0FF"/>
<path d="M1.67223 17.016C1.54061 17.1476 1.56215 17.2682 1.55398 17.4514C1.55762 17.9073 1.72373 18.2204 2.01623 18.564C2.31166 18.7609 2.44497 18.7513 2.79023 18.736C2.93939 18.4377 2.91686 18.1162 2.87623 17.79C2.72035 17.4997 2.72035 17.4997 2.53223 17.274C2.49498 17.2208 2.45773 17.1676 2.41935 17.1127C2.18041 16.9534 1.94969 16.9954 1.67223 17.016Z" fill="#74C0FF"/>
<path d="M10.5302 23.982C10.5018 24.1807 10.4735 24.3793 10.4442 24.584C10.6713 24.5556 10.8983 24.5272 11.1322 24.498C11.3613 24.8226 11.4509 25.0456 11.3902 25.444C11.2285 25.6085 11.2285 25.6085 11.0462 25.702C11.5932 25.7433 11.5932 25.7433 11.8202 25.573C11.9455 25.2599 11.9027 24.9877 11.8202 24.67C11.5389 24.051 11.2 23.8244 10.5302 23.982Z" fill="#B0B7CC"/>
<path d="M7.26223 26.39C6.84298 26.5512 6.84298 26.5512 6.74623 26.648C6.71397 27.0351 6.70029 27.2478 6.88061 27.594C7.09023 27.766 7.09023 27.766 7.39123 27.8144C7.72889 27.7601 7.82939 27.6867 8.03623 27.422C7.97947 27.422 7.92271 27.422 7.86423 27.422C7.86423 27.3652 7.86423 27.3085 7.86423 27.25C7.7209 27.1067 7.57756 26.9633 7.43423 26.82C7.3065 26.6177 7.3065 26.6177 7.26223 26.39Z" fill="#88C9FF"/>
<path d="M12.8522 10.91C12.8239 10.9951 12.7955 11.0803 12.7662 11.168C12.823 11.2247 12.8798 11.2815 12.9382 11.34C13.0518 11.34 13.1653 11.34 13.2822 11.34C13.2822 12.0779 13.2822 12.8157 13.2822 13.576C13.339 13.576 13.3957 13.576 13.4542 13.576C13.4542 12.8097 13.4542 12.0435 13.4542 11.254C13.2556 11.1405 13.0569 11.027 12.8522 10.91Z" fill="#ACABBF"/>
<path d="M13.2822 8.24399C13.2538 8.24399 13.2255 8.24399 13.1962 8.24399C13.1962 8.41427 13.1962 8.58455 13.1962 8.75999C13.1182 8.78305 13.0401 8.80611 12.9597 8.82986C12.7048 8.92303 12.5412 9.01658 12.3362 9.18999C12.5042 9.25158 12.6722 9.31317 12.8401 9.37475C13.0221 9.44713 13.1945 9.52997 13.3682 9.61999C13.3766 9.15155 13.3793 8.70503 13.2822 8.24399Z" fill="#D9DDEA"/>
<path d="M7.43423 26.82C7.1768 26.9058 7.09473 26.9707 6.91823 27.164C6.97499 27.164 7.03175 27.164 7.09023 27.164C7.09023 27.3059 7.09023 27.4478 7.09023 27.594C7.15231 27.578 7.21439 27.5621 7.27835 27.5456C7.53126 27.5063 7.70436 27.5308 7.95023 27.594C7.97861 27.5372 8.00699 27.4805 8.03623 27.422C7.97947 27.422 7.92271 27.422 7.86423 27.422C7.86423 27.3652 7.86423 27.3085 7.86423 27.25C7.72443 27.1032 7.58119 26.9596 7.43423 26.82Z" fill="#88C9FF"/>
<path d="M11.7342 30.002C11.7058 30.0871 11.6775 30.1723 11.6482 30.26C11.595 30.2423 11.5418 30.2245 11.487 30.2062C11.3965 30.1903 11.3965 30.1903 11.3042 30.174C11.2475 30.2307 11.1907 30.2875 11.1322 30.346C11.2103 30.369 11.2883 30.3921 11.3687 30.4159C11.6263 30.51 11.7777 30.6133 11.9922 30.776C12.0774 30.776 12.1625 30.776 12.2502 30.776C12.2502 30.8327 12.2502 30.8895 12.2502 30.948C12.3354 30.9196 12.4205 30.8912 12.5082 30.862C12.4444 30.7848 12.4444 30.7848 12.3792 30.7061C12.2259 30.5205 12.2259 30.5205 12.2502 30.26C12.0799 30.1748 11.9097 30.0897 11.7342 30.002Z" fill="#C9CDE0"/>
<path d="M7.77823 26.218C7.72147 26.218 7.66471 26.218 7.60623 26.218C7.57785 26.2748 7.54947 26.3315 7.52023 26.39C7.34611 26.4461 7.34611 26.4461 7.17623 26.476C7.30762 26.7716 7.47738 27.0083 7.69223 27.25C7.74899 27.25 7.80575 27.25 7.86423 27.25C7.86423 27.3067 7.86423 27.3635 7.86423 27.422C7.92099 27.3936 7.97775 27.3652 8.03623 27.336C7.94518 27.0433 7.86345 26.8188 7.69223 26.562C7.71875 26.3769 7.71875 26.3769 7.77823 26.218Z" fill="#88C9FF"/>
<path d="M11.5622 24.24C11.4673 24.5247 11.4825 24.6913 11.5139 24.9871C11.5226 25.0726 11.5314 25.1581 11.5404 25.2461C11.5512 25.3441 11.5512 25.3441 11.5622 25.444C11.3919 25.5007 11.2217 25.5575 11.0462 25.616C11.0462 25.6444 11.0462 25.6728 11.0462 25.702C11.5932 25.7433 11.5932 25.7433 11.8202 25.573C11.9451 25.2609 11.9049 24.9866 11.8202 24.67C11.6859 24.412 11.6859 24.412 11.5622 24.24Z" fill="#B6BDD4"/>
<path d="M26.0962 25.444C25.8408 25.4866 25.8408 25.4866 25.5802 25.53C25.5518 25.6151 25.5235 25.7003 25.4942 25.788C25.4375 25.788 25.3807 25.788 25.3222 25.788C25.2655 25.6745 25.2087 25.561 25.1502 25.444C24.9799 25.6994 24.8097 25.9548 24.6342 26.218C25.0398 26.1369 25.2586 26.0386 25.6071 25.831C25.699 25.7769 25.7909 25.7228 25.8856 25.6671C25.9899 25.5992 25.9899 25.5992 26.0962 25.53C26.0962 25.5016 26.0962 25.4732 26.0962 25.444Z" fill="#AAD9FF"/>
<path d="M26.6122 2.05199C26.5555 2.16551 26.4987 2.27903 26.4402 2.39599C26.5254 2.42437 26.6105 2.45275 26.6982 2.48199C26.6698 2.56713 26.6415 2.65227 26.6122 2.73999C26.7257 2.73999 26.8393 2.73999 26.9562 2.73999C26.9616 2.81094 26.9669 2.88189 26.9724 2.95499C27.0623 3.34229 27.249 3.61948 27.4722 3.94399C27.5582 3.68599 27.5582 3.68599 27.447 3.41254C27.3936 3.30615 27.3393 3.20023 27.2841 3.09474C27.2579 3.04208 27.2317 2.98942 27.2047 2.93517C27.0383 2.60945 26.8501 2.32937 26.6122 2.05199Z" fill="#88C9FF"/>
<path d="M12.4222 9.87799C12.4867 10.4585 12.4867 10.4585 12.6802 10.652C12.7938 10.652 12.9073 10.652 13.0242 10.652C13.0555 10.1829 13.0555 10.1829 12.9167 9.97474C12.7662 9.87799 12.7662 9.87799 12.4222 9.87799Z" fill="#74C0FF"/>
<path d="M18.0982 12.716C17.9155 12.7482 17.9155 12.7482 17.7542 12.802C17.8187 13.2965 17.8187 13.2965 18.0122 13.49C18.1257 13.49 18.2393 13.49 18.3562 13.49C18.2917 12.9095 18.2917 12.9095 18.0982 12.716Z" fill="#74C0FF"/>
<path d="M25.4942 1.27799C25.5226 1.41989 25.551 1.56179 25.5802 1.70799C25.637 1.70799 25.6937 1.70799 25.7522 1.70799C25.7806 1.76475 25.809 1.82151 25.8382 1.87999C26.0085 1.87999 26.1788 1.87999 26.3542 1.87999C26.3542 1.93675 26.3542 1.99351 26.3542 2.05199C26.411 2.02361 26.4677 1.99523 26.5262 1.96599C26.4978 1.90923 26.4695 1.85247 26.4402 1.79399C26.3835 1.79399 26.3267 1.79399 26.2682 1.79399C26.2682 1.73723 26.2682 1.68047 26.2682 1.62199C25.9841 1.35367 25.8964 1.27799 25.4942 1.27799Z" fill="#88C9FF"/>
<path d="M12.0782 9.70599C12.0533 10.129 12.0544 10.4076 12.3362 10.738C12.5566 10.8186 12.5566 10.8186 12.7662 10.824C12.823 10.7672 12.8797 10.7105 12.9382 10.652C12.885 10.6343 12.8318 10.6165 12.777 10.5982C12.5214 10.4329 12.5095 10.2491 12.4222 9.96399C12.2072 9.70599 12.2072 9.70599 12.0782 9.70599Z" fill="#B0B7D0"/>
<path d="M11.3902 24.154C11.1916 24.2107 10.9929 24.2675 10.7882 24.326C10.8397 24.3455 10.8911 24.365 10.9441 24.3851C11.1895 24.5324 11.2674 24.6707 11.3902 24.928C11.4516 25.2027 11.4516 25.2027 11.4762 25.444C11.5046 25.444 11.533 25.444 11.5622 25.444C11.5669 25.2935 11.5702 25.143 11.573 24.9925C11.576 24.8668 11.576 24.8668 11.579 24.7385C11.5621 24.4963 11.5146 24.3596 11.3902 24.154Z" fill="#969FB9"/>
<path d="M35.9862 8.75999C35.9295 8.75999 35.8727 8.75999 35.8142 8.75999C35.828 9.30912 36.1394 9.59076 36.5022 9.96399C36.5306 9.87885 36.559 9.79371 36.5882 9.70599C36.471 9.47386 36.471 9.47386 36.3034 9.21686C36.2487 9.13139 36.194 9.04592 36.1377 8.95786C36.0877 8.89256 36.0377 8.82726 35.9862 8.75999Z" fill="#CFEAFF"/>
<path d="M37.2762 11.168C37.1281 11.5193 37.27 11.8018 37.3999 12.1355C37.4208 12.1914 37.4416 12.2472 37.4632 12.3048C37.5147 12.4422 37.5674 12.5791 37.6202 12.716C37.6486 12.716 37.677 12.716 37.7062 12.716C37.6816 12.114 37.5769 11.6917 37.2762 11.168Z" fill="#CFEAFF"/>
<path d="M8.05773 26.8469C7.96194 26.8761 7.96194 26.8761 7.86423 26.906C7.92099 27.0763 7.97775 27.2465 8.03623 27.422C8.28693 27.3296 8.44714 27.2691 8.63823 27.078C8.42711 26.8825 8.35119 26.8135 8.05773 26.8469Z" fill="#88C9FF"/>
<path d="M24.7202 18.22C24.6478 18.4915 24.6342 18.7124 24.6342 18.994C24.7909 19.1595 24.969 19.2843 25.1502 19.424C25.1112 19.2877 25.0717 19.1516 25.032 19.0155C25.01 18.9397 24.9881 18.8638 24.9655 18.7857C24.899 18.5846 24.8203 18.4062 24.7202 18.22Z" fill="#D0D7E5"/>
<path d="M25.9242 9.18999C25.8675 9.21837 25.8107 9.24675 25.7522 9.27599C25.8072 9.29727 25.8622 9.31856 25.9189 9.34049C26.1123 9.43213 26.1123 9.43213 26.1607 9.63074C26.1678 9.68395 26.1749 9.73716 26.1822 9.79199C26.2674 9.79199 26.3525 9.79199 26.4402 9.79199C26.4402 9.84875 26.4402 9.90551 26.4402 9.96399C26.5821 9.96399 26.724 9.96399 26.8702 9.96399C26.5749 9.65133 26.2857 9.41693 25.9242 9.18999Z" fill="#AAD9FF"/>
<path d="M6.57423 22.004C6.40223 22.176 6.40223 22.176 6.38073 22.4609C6.40063 22.7544 6.44725 22.9461 6.57423 23.208C6.60261 23.208 6.63099 23.208 6.66023 23.208C6.66256 23.0557 6.66422 22.9034 6.66561 22.7511C6.6666 22.6663 6.6676 22.5815 6.66863 22.4941C6.66023 22.262 6.66023 22.262 6.57423 22.004Z" fill="#C6C7D5"/>
<path d="M28.5902 11.512C28.5618 11.5687 28.5335 11.6255 28.5042 11.684C28.7755 12.099 29.0451 12.5075 29.3642 12.888C29.421 12.8596 29.4777 12.8312 29.5362 12.802C29.427 12.6515 29.3177 12.501 29.2084 12.3505C29.1171 12.2248 29.1171 12.2248 29.0239 12.0965C28.8808 11.9005 28.7364 11.7057 28.5902 11.512Z" fill="#AAD9FF"/>
<path d="M26.8702 24.928C26.6148 24.9706 26.6148 24.9706 26.3542 25.014C26.3542 25.0708 26.3542 25.1275 26.3542 25.186C26.2407 25.1576 26.1272 25.1292 26.0102 25.1C26.0386 25.2135 26.067 25.327 26.0962 25.444C26.3889 25.3529 26.6134 25.2712 26.8702 25.1C26.8702 25.0432 26.8702 24.9865 26.8702 24.928Z" fill="#AAD9FF"/>
<path d="M31.0842 22.09C31.0558 22.1467 31.0275 22.2035 30.9982 22.262C30.9415 22.262 30.8847 22.262 30.8262 22.262C30.5682 22.5597 30.5682 22.5597 30.5682 22.778C30.7712 22.743 30.9001 22.7007 31.0681 22.5791C31.1702 22.434 31.1702 22.434 31.1434 22.2459C31.1238 22.1944 31.1043 22.143 31.0842 22.09Z" fill="#AAD9FF"/>
<path d="M24.2042 1.01999C23.8782 1.14465 23.5689 1.29104 23.2582 1.44999C23.4302 1.62199 23.4302 1.62199 23.656 1.63274C23.7234 1.62919 23.7908 1.62564 23.8602 1.62199C23.8886 1.48009 23.917 1.33819 23.9462 1.19199C24.0314 1.19199 24.1165 1.19199 24.2042 1.19199C24.2042 1.13523 24.2042 1.07847 24.2042 1.01999Z" fill="#AAD9FF"/>
<path d="M24.1182 30.776C23.9462 30.948 23.9462 30.948 23.9355 31.1737C23.939 31.2411 23.9426 31.3085 23.9462 31.378C24.2389 31.2869 24.4634 31.2052 24.7202 31.034C24.7202 30.9772 24.7202 30.9205 24.7202 30.862C24.5216 30.9188 24.3229 30.9755 24.1182 31.034C24.1182 30.9489 24.1182 30.8637 24.1182 30.776Z" fill="#DDDCE7"/>
<path d="M9.15423 17.188C8.9016 17.2579 8.9016 17.2579 8.63823 17.36C8.60985 17.4451 8.58147 17.5303 8.55223 17.618C9.19078 17.5328 9.19078 17.5329 9.84223 17.446C9.84223 17.4176 9.84223 17.3892 9.84223 17.36C9.61519 17.3316 9.38815 17.3032 9.15423 17.274C9.15423 17.2456 9.15423 17.2172 9.15423 17.188Z" fill="#EEF2F9"/>
<path d="M13.1102 8.75999C12.8845 8.84061 12.8845 8.84061 12.6802 8.93199C12.7654 8.97456 12.7654 8.97456 12.8522 9.01799C12.8522 9.10313 12.8522 9.18827 12.8522 9.27599C12.9956 9.27599 13.1389 9.27599 13.2822 9.27599C13.2822 9.13409 13.2822 8.99219 13.2822 8.84599C13.2255 8.81761 13.1687 8.78923 13.1102 8.75999Z" fill="#E6E7F0"/>
<path d="M25.0642 27.766C24.9791 27.766 24.8939 27.766 24.8062 27.766C24.8468 28.1313 25.0614 28.2992 25.3222 28.54C25.2794 28.2188 25.247 28.0401 25.0642 27.766Z" fill="#E1E0E5"/>
<path d="M2.53223 19.768C2.53223 19.8248 2.53223 19.8815 2.53223 19.94C2.80527 20.1041 2.97133 20.1258 3.28473 20.0797C3.35346 20.0702 3.42219 20.0607 3.49301 20.0508C3.54489 20.0426 3.59677 20.0344 3.65023 20.026C3.65023 19.9976 3.65023 19.9692 3.65023 19.94C3.49618 19.9111 3.34209 19.8825 3.18798 19.854C3.10217 19.838 3.01637 19.8221 2.92796 19.8056C2.70423 19.768 2.70423 19.768 2.53223 19.768Z" fill="#C9C8D4"/>
<path d="M17.7542 31.034C17.6975 31.034 17.6407 31.034 17.5822 31.034C17.5822 31.0908 17.5822 31.1475 17.5822 31.206C17.4838 31.2406 17.4838 31.2406 17.3834 31.2759C17.1631 31.3732 17.0493 31.4564 16.8942 31.636C17.2987 31.636 17.3825 31.5623 17.6682 31.292C17.6966 31.2069 17.725 31.1217 17.7542 31.034Z" fill="#C9C8D3"/>
<path d="M9.32623 15.296C8.94773 15.3392 8.749 15.4755 8.46623 15.726C8.69327 15.726 8.92031 15.726 9.15423 15.726C9.21099 15.5841 9.26775 15.4422 9.32623 15.296Z" fill="#EFEEF4"/>
<path d="M10.6162 29.314C10.5879 29.3707 10.5595 29.4275 10.5302 29.486C10.4735 29.5144 10.4167 29.5427 10.3582 29.572C10.5001 29.7139 10.642 29.8558 10.7882 30.002C10.8734 29.9736 10.9585 29.9452 11.0462 29.916C10.9043 29.7173 10.7624 29.5187 10.6162 29.314Z" fill="#C9CDE0"/>
<path d="M27.9022 24.412C27.612 24.4012 27.612 24.4012 27.3002 24.412C27.2435 24.4688 27.1867 24.5255 27.1282 24.584C27.1605 24.7667 27.1605 24.7667 27.2142 24.928C27.3291 24.8585 27.4437 24.7885 27.5582 24.7184C27.6221 24.6795 27.6859 24.6405 27.7517 24.6005C27.8014 24.5666 27.8511 24.5328 27.9022 24.498C27.9022 24.4696 27.9022 24.4412 27.9022 24.412Z" fill="#AAD9FF"/>
<path d="M32.2882 21.746C31.9348 21.8707 31.649 22.0479 31.3422 22.262C31.4274 22.3046 31.4274 22.3046 31.5142 22.348C31.6785 22.2902 31.6785 22.2902 31.8636 22.1975C31.9249 22.1678 31.9862 22.1381 32.0494 22.1075C32.2022 22.004 32.2022 22.004 32.2882 21.746Z" fill="#DFDEE1"/>
<path d="M12.1642 9.36199C11.9922 9.61999 11.9922 9.61999 12.0245 9.80811C12.0422 9.85955 12.06 9.91099 12.0782 9.96399C12.1066 9.93561 12.135 9.90723 12.1642 9.87799C12.221 9.96313 12.2777 10.0483 12.3362 10.136C12.433 9.72749 12.433 9.72749 12.3362 9.53399C12.2795 9.53399 12.2227 9.53399 12.1642 9.53399C12.1642 9.47723 12.1642 9.42047 12.1642 9.36199Z" fill="#B0B7D0"/>
<path d="M24.4622 26.132C24.4622 26.1888 24.4622 26.2455 24.4622 26.304C24.3585 26.3412 24.3585 26.3412 24.2526 26.3792C24.0322 26.476 24.0322 26.476 23.9462 26.648C24.3247 26.6047 24.5235 26.4684 24.8062 26.218C24.6342 26.132 24.6342 26.132 24.4622 26.132Z" fill="#C5C4D0"/>
<path d="M8.20823 26.046C7.56257 26.0989 7.56257 26.0989 7.34823 26.2664C7.31985 26.3072 7.29147 26.348 7.26223 26.39C7.37575 26.4184 7.48927 26.4468 7.60623 26.476C7.60623 26.3909 7.60623 26.3057 7.60623 26.218C7.77651 26.2464 7.94679 26.2747 8.12223 26.304C8.15061 26.2188 8.17899 26.1337 8.20823 26.046Z" fill="#88C9FF"/>
<path d="M7.52023 27.422C7.2891 27.4972 7.2891 27.4972 7.09023 27.594C7.09023 27.6508 7.09023 27.7075 7.09023 27.766C7.28889 27.766 7.48755 27.766 7.69223 27.766C7.72061 27.7092 7.74899 27.6525 7.77823 27.594C7.69309 27.5372 7.60795 27.4805 7.52023 27.422Z" fill="#88C9FF"/>
<path d="M35.2982 7.89999C35.2337 8.05049 35.2337 8.05049 35.2122 8.24399C35.3789 8.43749 35.3789 8.43749 35.5562 8.58799C35.613 8.53123 35.6697 8.47447 35.7282 8.41599C35.5863 8.24571 35.4444 8.07543 35.2982 7.89999Z" fill="#CFEAFF"/>
<path d="M33.0622 6.09399C33.0055 6.12237 32.9487 6.15075 32.8902 6.17999C33.0818 6.46732 33.1696 6.51557 33.4922 6.60999C33.5774 6.58161 33.6625 6.55323 33.7502 6.52399C33.6397 6.4497 33.5285 6.37643 33.417 6.30362C33.3242 6.24225 33.3242 6.24226 33.2295 6.17966C33.1743 6.15139 33.1191 6.12312 33.0622 6.09399Z" fill="#CFEAFF"/>
<path d="M9.75623 28.54C9.72785 28.6535 9.69947 28.767 9.67023 28.884C9.92565 29.0968 9.92565 29.0968 10.1862 29.314C10.1862 29.2289 10.1862 29.1437 10.1862 29.056C10.1295 29.056 10.0727 29.056 10.0142 29.056C9.98762 29.0028 9.96102 28.9496 9.9336 28.8947C9.87448 28.7765 9.81535 28.6582 9.75623 28.54Z" fill="#C9CDE0"/>
<path d="M13.7122 27.078C13.5402 27.336 13.5402 27.336 13.3682 27.594C13.3966 27.6791 13.425 27.7643 13.4542 27.852C13.6316 27.7069 13.6316 27.7069 13.7982 27.508C13.7767 27.2715 13.7767 27.2715 13.7122 27.078Z" fill="#EDF1F8"/>
<path d="M11.7342 25.186C11.7058 25.2995 11.6775 25.413 11.6482 25.53C11.5631 25.5016 11.4779 25.4732 11.3902 25.444C11.2021 25.5676 11.2021 25.5676 11.0462 25.702C11.2469 25.7056 11.4476 25.7055 11.6482 25.702C11.7342 25.616 11.7342 25.616 11.7396 25.3956C11.7378 25.3264 11.7361 25.2573 11.7342 25.186Z" fill="#ADB4CB"/>
<path d="M11.3902 24.154C11.1916 24.2107 10.9929 24.2675 10.7882 24.326C10.8397 24.3508 10.8911 24.3757 10.9441 24.4012C11.1489 24.5021 11.1489 24.5021 11.3902 24.67C11.3902 24.4997 11.3902 24.3294 11.3902 24.154Z" fill="#9DA8BE"/>
<path d="M12.5942 9.36199C12.4523 9.36199 12.3104 9.36199 12.1642 9.36199C12.1642 9.41875 12.1642 9.47551 12.1642 9.53399C12.221 9.53399 12.2777 9.53399 12.3362 9.53399C12.3646 9.64751 12.393 9.76103 12.4222 9.87799C12.5074 9.84961 12.5925 9.82123 12.6802 9.79199C12.6235 9.70685 12.5667 9.62171 12.5082 9.53399C12.5366 9.47723 12.565 9.42047 12.5942 9.36199Z" fill="#B0B7D0"/>
<path d="M23.8602 31.378C23.5727 31.4259 23.3414 31.4942 23.0862 31.636C23.4101 31.744 23.5482 31.6679 23.8602 31.55C23.8602 31.4932 23.8602 31.4365 23.8602 31.378Z" fill="#D0CFD8"/>
<path d="M16.4642 29.744C16.0557 29.8192 16.0557 29.8192 15.8622 29.916C15.8622 29.9727 15.8622 30.0295 15.8622 30.088C15.8055 30.1164 15.7487 30.1448 15.6902 30.174C16.0612 30.1328 16.2205 30.0239 16.4642 29.744Z" fill="#EAEEF8"/>
<path d="M20.0762 29.83C20.3783 30.0371 20.5687 30.1195 20.9362 30.088C20.4156 29.6603 20.4156 29.6603 20.0762 29.83Z" fill="#C5C4CD"/>
<path d="M6.91823 27.078C6.86147 27.1064 6.80471 27.1348 6.74623 27.164C6.89673 27.5832 6.89673 27.5832 7.09023 27.68C7.09023 27.5097 7.09023 27.3394 7.09023 27.164C7.03347 27.1356 6.97671 27.1072 6.91823 27.078Z" fill="#88C9FF"/>
<path d="M26.0962 25.444C25.849 25.4655 25.849 25.4655 25.5802 25.53C25.462 25.7074 25.462 25.7074 25.4082 25.874C25.6985 25.772 25.8939 25.6783 26.0962 25.444Z" fill="#AAD9FF"/>
<path d="M1.41423 18.478C1.38585 18.5631 1.35746 18.6483 1.32822 18.736C1.45294 18.9592 1.53001 19.0607 1.77435 19.1445C1.82579 19.1516 1.87723 19.1587 1.93023 19.166C1.93023 18.994 1.93023 18.994 1.7206 18.7736C1.64788 18.7044 1.57515 18.6353 1.50023 18.564C1.47185 18.5356 1.44347 18.5072 1.41423 18.478Z" fill="#C4C5D0"/>
</svg>
