<svg width="14" height="31" viewBox="0 0 14 31" fill="none" xmlns="http://www.w3.org/2000/svg">
<rect x="9.89243" y="-7.62939e-06" width="3.93414" height="31" fill="#AAD9FF"/>
<rect width="0.418866" height="5.69226" rx="0.209433" transform="matrix(0.66414 0.747608 -0.66414 0.747608 13.6191 4.47181)" fill="#D6ECFE"/>
<rect width="0.418866" height="5.69226" rx="0.209433" transform="matrix(0.66414 0.747608 -0.66414 0.747608 13.6191 13.2857)" fill="#D6ECFE"/>
<rect width="0.418866" height="5.69226" rx="0.209433" transform="matrix(0.66414 0.747608 -0.66414 0.747608 13.6191 22.1429)" fill="#D6ECFE"/>
<rect x="4.97308" y="-7.62939e-06" width="3.93414" height="31" fill="#AAD9FF"/>
<rect width="0.418866" height="5.69226" rx="0.209433" transform="matrix(0.66414 0.747608 -0.66414 0.747608 8.69977 4.47181)" fill="#D6ECFE"/>
<rect width="0.418866" height="5.69226" rx="0.209433" transform="matrix(0.66414 0.747608 -0.66414 0.747608 8.69977 13.2857)" fill="#D6ECFE"/>
<rect width="0.418866" height="5.69226" rx="0.209433" transform="matrix(0.66414 0.747608 -0.66414 0.747608 8.69977 22.1429)" fill="#D6ECFE"/>
<rect x="0.053772" y="-7.62939e-06" width="3.93414" height="31" fill="#AAD9FF"/>
<rect width="0.418866" height="5.69226" rx="0.209433" transform="matrix(0.66414 0.747608 -0.66414 0.747608 3.78046 4.47181)" fill="#D6ECFE"/>
<rect width="0.418866" height="5.69226" rx="0.209433" transform="matrix(0.66414 0.747608 -0.66414 0.747608 3.78046 13.2857)" fill="#D6ECFE"/>
<rect width="0.418866" height="5.69226" rx="0.209433" transform="matrix(0.66414 0.747608 -0.66414 0.747608 3.78046 22.1429)" fill="#D6ECFE"/>
</svg>
